<svg xmlns="http://www.w3.org/2000/svg" xmlns:xlink="http://www.w3.org/1999/xlink" width="375" viewBox="0 0 375 375" height="375" version="1.0"><defs><linearGradient x1="0" gradientTransform="matrix(375 0 0 375 0 0)" xmlns:xlink="http://www.w3.org/1999/xlink" y1="0" x2="1.005" gradientUnits="userSpaceOnUse" y2=".995" xlink:type="simple" xlink:actuate="onLoad" id="b" xlink:show="other"><stop stop-color="#FF914D" offset="0"/><stop stop-color="#FF914D" offset=".008"/><stop stop-color="#FF904C" offset=".016"/><stop stop-color="#FF8F4C" offset=".023"/><stop stop-color="#FF8E4C" offset=".031"/><stop stop-color="#FF8D4B" offset=".039"/><stop stop-color="#FF8C4B" offset=".047"/><stop stop-color="#FF8B4A" offset=".055"/><stop stop-color="#FF8A4A" offset=".063"/><stop stop-color="#FF8949" offset=".07"/><stop stop-color="#FF8849" offset=".078"/><stop stop-color="#FF8749" offset=".086"/><stop stop-color="#FF8648" offset=".094"/><stop stop-color="#FF8548" offset=".102"/><stop stop-color="#FF8447" offset=".109"/><stop stop-color="#FF8347" offset=".117"/><stop stop-color="#FF8246" offset=".125"/><stop stop-color="#FF8146" offset=".133"/><stop stop-color="#FF8046" offset=".141"/><stop stop-color="#FF7F45" offset=".148"/><stop stop-color="#FF7F45" offset=".156"/><stop stop-color="#FF7E44" offset=".164"/><stop stop-color="#FF7D44" offset=".172"/><stop stop-color="#FF7C43" offset=".18"/><stop stop-color="#FF7B43" offset=".188"/><stop stop-color="#FF7A43" offset=".195"/><stop stop-color="#FF7942" offset=".203"/><stop stop-color="#FF7842" offset=".211"/><stop stop-color="#FF7741" offset=".219"/><stop stop-color="#FF7641" offset=".227"/><stop stop-color="#FF7540" offset=".234"/><stop stop-color="#FF7440" offset=".242"/><stop stop-color="#FF7340" offset=".25"/><stop stop-color="#FF723F" offset=".258"/><stop stop-color="#FF713F" offset=".266"/><stop stop-color="#FF703E" offset=".273"/><stop stop-color="#FF6F3E" offset=".281"/><stop stop-color="#FF6E3D" offset=".289"/><stop stop-color="#FF6D3D" offset=".297"/><stop stop-color="#FF6C3D" offset=".305"/><stop stop-color="#FF6C3C" offset=".313"/><stop stop-color="#FF6B3C" offset=".32"/><stop stop-color="#FF6A3B" offset=".328"/><stop stop-color="#FF693B" offset=".336"/><stop stop-color="#FF683B" offset=".344"/><stop stop-color="#FF673A" offset=".352"/><stop stop-color="#FF663A" offset=".359"/><stop stop-color="#FF6539" offset=".367"/><stop stop-color="#FF6439" offset=".375"/><stop stop-color="#FF6338" offset=".383"/><stop stop-color="#FF6238" offset=".391"/><stop stop-color="#FF6138" offset=".398"/><stop stop-color="#FF6037" offset=".406"/><stop stop-color="#FF5F37" offset=".414"/><stop stop-color="#FF5E36" offset=".422"/><stop stop-color="#FF5D36" offset=".43"/><stop stop-color="#FF5C35" offset=".438"/><stop stop-color="#FF5B35" offset=".445"/><stop stop-color="#FF5A35" offset=".453"/><stop stop-color="#FF5934" offset=".461"/><stop stop-color="#FF5934" offset=".469"/><stop stop-color="#FF5833" offset=".477"/><stop stop-color="#FF5733" offset=".484"/><stop stop-color="#FF5632" offset=".492"/><stop stop-color="#FF5532" offset=".498"/><stop stop-color="#FF5432" offset=".5"/><stop stop-color="#FF5432" offset=".502"/><stop stop-color="#FF5331" offset=".508"/><stop stop-color="#FF5331" offset=".516"/><stop stop-color="#FF5231" offset=".523"/><stop stop-color="#FF5130" offset=".531"/><stop stop-color="#FF5030" offset=".539"/><stop stop-color="#FF4F2F" offset=".547"/><stop stop-color="#FF4E2F" offset=".555"/><stop stop-color="#FF4D2F" offset=".563"/><stop stop-color="#FF4C2E" offset=".57"/><stop stop-color="#FF4B2E" offset=".578"/><stop stop-color="#FF4A2D" offset=".586"/><stop stop-color="#FF492D" offset=".594"/><stop stop-color="#FF482C" offset=".602"/><stop stop-color="#FF472C" offset=".609"/><stop stop-color="#FF462C" offset=".617"/><stop stop-color="#FF452B" offset=".625"/><stop stop-color="#FF452B" offset=".633"/><stop stop-color="#FF442A" offset=".641"/><stop stop-color="#FF432A" offset=".648"/><stop stop-color="#FF422A" offset=".656"/><stop stop-color="#FF4129" offset=".664"/><stop stop-color="#FF4029" offset=".672"/><stop stop-color="#FF3F28" offset=".68"/><stop stop-color="#FF3E28" offset=".688"/><stop stop-color="#FF3D27" offset=".695"/><stop stop-color="#FF3C27" offset=".703"/><stop stop-color="#FF3B27" offset=".711"/><stop stop-color="#FF3A26" offset=".719"/><stop stop-color="#FF3926" offset=".727"/><stop stop-color="#FF3825" offset=".734"/><stop stop-color="#FF3725" offset=".742"/><stop stop-color="#FF3624" offset=".75"/><stop stop-color="#FF3524" offset=".758"/><stop stop-color="#FF3424" offset=".766"/><stop stop-color="#FF3323" offset=".773"/><stop stop-color="#FF3223" offset=".781"/><stop stop-color="#FF3222" offset=".789"/><stop stop-color="#FF3122" offset=".797"/><stop stop-color="#FF3021" offset=".805"/><stop stop-color="#FF2F21" offset=".813"/><stop stop-color="#FF2E21" offset=".82"/><stop stop-color="#FF2D20" offset=".828"/><stop stop-color="#FF2C20" offset=".836"/><stop stop-color="#FF2B1F" offset=".844"/><stop stop-color="#FF2A1F" offset=".852"/><stop stop-color="#FF291E" offset=".859"/><stop stop-color="#FF281E" offset=".867"/><stop stop-color="#FF271E" offset=".875"/><stop stop-color="#FF261D" offset=".883"/><stop stop-color="#FF251D" offset=".891"/><stop stop-color="#FF241C" offset=".898"/><stop stop-color="#FF231C" offset=".906"/><stop stop-color="#FF221B" offset=".914"/><stop stop-color="#FF211B" offset=".922"/><stop stop-color="#FF201B" offset=".93"/><stop stop-color="#FF1F1A" offset=".938"/><stop stop-color="#FF1F1A" offset=".945"/><stop stop-color="#FF1E19" offset=".953"/><stop stop-color="#FF1D19" offset=".961"/><stop stop-color="#FF1C18" offset=".969"/><stop stop-color="#FF1B18" offset=".977"/><stop stop-color="#FF1A18" offset=".984"/><stop stop-color="#FF1917" offset=".992"/><stop stop-color="#FF1817" offset="1"/></linearGradient><clipPath id="a"><path d="M 375 187.5 C 375 190.570312 374.925781 193.636719 374.773438 196.699219 C 374.625 199.765625 374.398438 202.824219 374.097656 205.878906 C 373.796875 208.933594 373.421875 211.976562 372.96875 215.011719 C 372.519531 218.046875 371.996094 221.070312 371.398438 224.078125 C 370.796875 227.089844 370.125 230.082031 369.378906 233.058594 C 368.636719 236.035156 367.816406 238.992188 366.925781 241.929688 C 366.035156 244.863281 365.074219 247.777344 364.039062 250.667969 C 363.003906 253.554688 361.902344 256.417969 360.726562 259.253906 C 359.554688 262.089844 358.308594 264.890625 356.996094 267.667969 C 355.6875 270.441406 354.308594 273.179688 352.859375 275.886719 C 351.414062 278.59375 349.902344 281.261719 348.324219 283.894531 C 346.746094 286.527344 345.105469 289.117188 343.402344 291.667969 C 341.695312 294.222656 339.929688 296.730469 338.101562 299.195312 C 336.273438 301.660156 334.386719 304.078125 332.4375 306.449219 C 330.492188 308.820312 328.488281 311.144531 326.429688 313.417969 C 324.367188 315.691406 322.253906 317.914062 320.082031 320.082031 C 317.914062 322.253906 315.691406 324.367188 313.417969 326.429688 C 311.144531 328.488281 308.820312 330.492188 306.449219 332.4375 C 304.078125 334.386719 301.660156 336.273438 299.195312 338.101562 C 296.730469 339.929688 294.222656 341.695312 291.667969 343.402344 C 289.117188 345.105469 286.527344 346.746094 283.894531 348.324219 C 281.261719 349.902344 278.59375 351.414062 275.886719 352.859375 C 273.179688 354.308594 270.441406 355.6875 267.667969 356.996094 C 264.890625 358.308594 262.089844 359.554688 259.253906 360.726562 C 256.417969 361.902344 253.554688 363.003906 250.667969 364.039062 C 247.777344 365.074219 244.863281 366.035156 241.929688 366.925781 C 238.992188 367.816406 236.035156 368.636719 233.058594 369.378906 C 230.082031 370.125 227.089844 370.796875 224.078125 371.398438 C 221.070312 371.996094 218.046875 372.519531 215.011719 372.96875 C 211.976562 373.421875 208.933594 373.796875 205.878906 374.097656 C 202.824219 374.398438 199.765625 374.625 196.699219 374.773438 C 193.636719 374.925781 190.570312 375 187.5 375 C 184.429688 375 181.363281 374.925781 178.300781 374.773438 C 175.234375 374.625 172.175781 374.398438 169.121094 374.097656 C 166.066406 373.796875 163.023438 373.421875 159.988281 372.96875 C 156.953125 372.519531 153.929688 371.996094 150.921875 371.398438 C 147.910156 370.796875 144.917969 370.125 141.941406 369.378906 C 138.964844 368.636719 136.007812 367.816406 133.070312 366.925781 C 130.136719 366.035156 127.222656 365.074219 124.332031 364.039062 C 121.445312 363.003906 118.582031 361.902344 115.746094 360.726562 C 112.910156 359.554688 110.105469 358.308594 107.332031 356.996094 C 104.558594 355.6875 101.820312 354.308594 99.113281 352.859375 C 96.40625 351.414062 93.738281 349.902344 91.105469 348.324219 C 88.472656 346.746094 85.882812 345.105469 83.332031 343.402344 C 80.777344 341.695312 78.269531 339.929688 75.804688 338.101562 C 73.339844 336.273438 70.921875 334.386719 68.550781 332.4375 C 66.179688 330.492188 63.855469 328.488281 61.582031 326.429688 C 59.308594 324.367188 57.085938 322.253906 54.917969 320.082031 C 52.746094 317.914062 50.632812 315.691406 48.570312 313.417969 C 46.511719 311.144531 44.507812 308.820312 42.558594 306.449219 C 40.613281 304.078125 38.726562 301.660156 36.898438 299.195312 C 35.070312 296.730469 33.304688 294.222656 31.597656 291.667969 C 29.894531 289.117188 28.253906 286.527344 26.675781 283.894531 C 25.097656 281.261719 23.585938 278.59375 22.140625 275.886719 C 20.691406 273.179688 19.3125 270.441406 18.003906 267.667969 C 16.691406 264.890625 15.445312 262.089844 14.273438 259.253906 C 13.097656 256.417969 11.996094 253.554688 10.960938 250.667969 C 9.925781 247.777344 8.964844 244.863281 8.074219 241.929688 C 7.183594 238.992188 6.363281 236.035156 5.621094 233.058594 C 4.875 230.082031 4.203125 227.089844 3.601562 224.078125 C 3.003906 221.070312 2.480469 218.046875 2.03125 215.011719 C 1.578125 211.976562 1.203125 208.933594 0.902344 205.878906 C 0.601562 202.824219 0.375 199.765625 0.226562 196.699219 C 0.0742188 193.636719 0 190.570312 0 187.5 C 0 184.429688 0.0742188 181.363281 0.226562 178.300781 C 0.375 175.234375 0.601562 172.175781 0.902344 169.121094 C 1.203125 166.066406 1.578125 163.023438 2.03125 159.988281 C 2.480469 156.953125 3.003906 153.929688 3.601562 150.921875 C 4.203125 147.910156 4.875 144.917969 5.621094 141.941406 C 6.363281 138.964844 7.183594 136.007812 8.074219 133.070312 C 8.964844 130.136719 9.925781 127.222656 10.960938 124.332031 C 11.996094 121.445312 13.097656 118.582031 14.273438 115.746094 C 15.445312 112.910156 16.691406 110.105469 18.003906 107.332031 C 19.3125 104.558594 20.691406 101.820312 22.140625 99.113281 C 23.585938 96.40625 25.097656 93.738281 26.675781 91.105469 C 28.253906 88.472656 29.894531 85.882812 31.597656 83.332031 C 33.304688 80.777344 35.070312 78.269531 36.898438 75.804688 C 38.726562 73.339844 40.613281 70.921875 42.558594 68.550781 C 44.507812 66.179688 46.511719 63.855469 48.570312 61.582031 C 50.632812 59.308594 52.746094 57.085938 54.917969 54.917969 C 57.085938 52.746094 59.308594 50.632812 61.582031 48.570312 C 63.855469 46.511719 66.179688 44.507812 68.550781 42.558594 C 70.921875 40.613281 73.339844 38.726562 75.804688 36.898438 C 78.269531 35.070312 80.777344 33.304688 83.332031 31.597656 C 85.882812 29.894531 88.472656 28.253906 91.105469 26.675781 C 93.738281 25.097656 96.40625 23.585938 99.113281 22.140625 C 101.820312 20.691406 104.558594 19.3125 107.332031 18.003906 C 110.105469 16.691406 112.910156 15.445312 115.746094 14.273438 C 118.582031 13.097656 121.445312 11.996094 124.332031 10.960938 C 127.222656 9.925781 130.136719 8.964844 133.070312 8.074219 C 136.007812 7.183594 138.964844 6.363281 141.941406 5.617188 C 144.917969 4.875 147.910156 4.203125 150.921875 3.601562 C 153.929688 3.003906 156.953125 2.480469 159.988281 2.03125 C 163.023438 1.578125 166.066406 1.203125 169.121094 0.902344 C 172.175781 0.601562 175.234375 0.375 178.300781 0.226562 C 181.363281 0.0742188 184.429688 0 187.5 0 C 190.570312 0 193.636719 0.0742188 196.699219 0.226562 C 199.765625 0.375 202.824219 0.601562 205.878906 0.902344 C 208.933594 1.203125 211.976562 1.578125 215.011719 2.03125 C 218.046875 2.480469 221.070312 3.003906 224.078125 3.601562 C 227.089844 4.203125 230.082031 4.875 233.058594 5.617188 C 236.035156 6.363281 238.992188 7.183594 241.929688 8.074219 C 244.863281 8.964844 247.777344 9.925781 250.667969 10.960938 C 253.554688 11.996094 256.417969 13.097656 259.253906 14.273438 C 262.089844 15.445312 264.890625 16.691406 267.667969 18.003906 C 270.441406 19.3125 273.179688 20.691406 275.886719 22.140625 C 278.59375 23.585938 281.261719 25.097656 283.894531 26.675781 C 286.527344 28.253906 289.117188 29.894531 291.667969 31.597656 C 294.222656 33.304688 296.730469 35.070312 299.195312 36.898438 C 301.660156 38.726562 304.078125 40.613281 306.449219 42.558594 C 308.820312 44.507812 311.144531 46.511719 313.417969 48.570312 C 315.691406 50.632812 317.914062 52.746094 320.082031 54.917969 C 322.253906 57.085938 324.367188 59.308594 326.429688 61.582031 C 328.488281 63.855469 330.492188 66.179688 332.4375 68.550781 C 334.386719 70.921875 336.273438 73.339844 338.101562 75.804688 C 339.929688 78.269531 341.695312 80.777344 343.402344 83.332031 C 345.105469 85.882812 346.746094 88.472656 348.324219 91.105469 C 349.902344 93.738281 351.414062 96.40625 352.859375 99.113281 C 354.308594 101.820312 355.6875 104.558594 356.996094 107.332031 C 358.308594 110.105469 359.554688 112.910156 360.726562 115.746094 C 361.902344 118.582031 363.003906 121.445312 364.039062 124.332031 C 365.074219 127.222656 366.035156 130.136719 366.925781 133.070312 C 367.816406 136.007812 368.636719 138.964844 369.378906 141.941406 C 370.125 144.917969 370.796875 147.910156 371.398438 150.921875 C 371.996094 153.929688 372.519531 156.953125 372.96875 159.988281 C 373.421875 163.023438 373.796875 166.066406 374.097656 169.121094 C 374.398438 172.175781 374.625 175.234375 374.773438 178.300781 C 374.925781 181.363281 375 184.429688 375 187.5 Z M 375 187.5"/></clipPath></defs><g clip-path="url(#a)"><path fill="url(#b)" d="M-37.5 -37.5H412.5V412.5H-37.5z"/></g><path fill="#FF914D" d="M 207.921875 50.496094 C 224.984375 92.070312 231.296875 137.605469 242.34375 184.007812 C 252.753906 227.714844 269.53125 270.058594 280.816406 311.449219 C 267.421875 313.773438 250.632812 314.835938 230.195312 312.460938 C 225.265625 308.261719 221.195312 298.507812 228.175781 293.242188 C 236.226562 291.324219 236.855469 297.332031 242.34375 295.265625 C 243.347656 281.792969 235.949219 264.753906 233.234375 246.71875 C 230.546875 228.871094 227.859375 209.640625 225.132812 197.15625 C 213.96875 195.847656 198.867188 195.34375 186.664062 200.191406 C 178.363281 229.96875 166.296875 258.996094 160.339844 295.265625 C 162.746094 299.507812 167.722656 292.691406 172.488281 296.28125 C 188.433594 320.492188 118.539062 311.820312 103.648438 313.476562 C 101.730469 297.394531 116.730469 298.222656 128.957031 296.28125 C 147.890625 256.449219 152.730469 202.984375 161.355469 153.667969 C 165.804688 128.226562 175.453125 100.40625 184.640625 77.808594 C 188.414062 68.523438 194.140625 57.472656 199.824219 50.496094 C 203.851562 51.238281 203.894531 51.238281 207.921875 50.496094 M 192.738281 105.113281 C 191.042969 128.421875 181.445312 155.699219 184.640625 180.972656 C 196.972656 178.4375 204.890625 181.640625 214 177.941406 C 218.414062 150.886719 210 125.246094 201.851562 105.113281 Z M 171.480469 207.273438 C 173.566406 207.546875 171.71875 211.75 174.515625 211.316406 C 175.558594 208.988281 178.003906 208.054688 177.550781 204.238281 C 174.46875 204.1875 172.398438 205.15625 171.480469 207.273438 M 169.453125 222.441406 C 170.304688 221.269531 170.789062 219.730469 170.46875 217.382812 C 169.292969 216.535156 167.753906 216.050781 165.40625 216.375 C 164.457031 220.367188 164.460938 222.394531 169.453125 222.441406" fill-rule="evenodd"/><path d="M 201.851562 105.117188 C 210 125.25 218.414062 150.890625 213.996094 177.941406 C 204.890625 181.640625 196.972656 178.4375 184.640625 180.972656 C 181.441406 155.699219 191.042969 128.421875 192.738281 105.117188 Z M 198.8125 156.699219 C 200.316406 163.351562 201.160156 175.011719 209.949219 171.871094 C 211.234375 151.332031 204.660156 129.976562 197.796875 114.21875 C 190.527344 127.480469 195.828125 143.484375 198.8125 156.699219 M 188.691406 172.882812 C 192.300781 172.785156 195.640625 172.410156 196.789062 169.851562 C 193.632812 164.238281 194.839844 154.265625 191.726562 148.609375 C 190.433594 156.417969 188.617188 163.710938 188.691406 172.882812" fill-rule="evenodd"/><path fill="#FF1616" d="M 197.800781 114.21875 C 204.660156 129.976562 211.234375 151.332031 209.949219 171.871094 C 201.160156 175.011719 200.320312 163.351562 198.8125 156.699219 C 195.828125 143.484375 190.53125 127.480469 197.800781 114.21875" fill-rule="evenodd"/><path d="M 177.550781 204.238281 C 178.003906 208.054688 175.558594 208.988281 174.515625 211.316406 C 171.71875 211.75 173.566406 207.546875 171.480469 207.273438 C 172.398438 205.15625 174.46875 204.191406 177.550781 204.238281" fill-rule="evenodd"/><path fill="#FF1616" d="M 208.9375 205.25 C 210.921875 203.332031 219.003906 203.910156 221.089844 205.25 C 223.460938 234.90625 229.78125 260.617188 235.261719 287.175781 C 229.816406 286.460938 226.609375 287.972656 223.105469 289.203125 C 220.230469 292.394531 219.835938 298.066406 218.046875 302.347656 C 209.457031 293.941406 217.761719 282.941406 224.121094 278.074219 C 219.683594 256.007812 219.355469 224.347656 208.9375 205.25" fill-rule="evenodd"/><path d="M 165.402344 216.375 C 167.753906 216.050781 169.292969 216.535156 170.46875 217.382812 C 170.789062 219.730469 170.300781 221.269531 169.453125 222.441406 C 164.460938 222.390625 164.457031 220.367188 165.402344 216.375" fill-rule="evenodd"/><path fill="#FF1616" d="M 186.664062 58.589844 C 187.8125 58.777344 187.226562 59.609375 186.664062 59.601562 C 173.804688 92.578125 159.941406 129.164062 153.257812 169.847656 C 146.5625 210.59375 141.457031 252.425781 127.949219 288.1875 C 115.3125 293.75 92.953125 293.925781 97.574219 313.476562 C 71.34375 313.03125 90.921875 284.699219 107.699219 286.164062 C 119.816406 273.488281 127.238281 235.617188 130.984375 213.34375 C 135.109375 188.789062 138.027344 163.136719 144.144531 141.523438 C 147.589844 129.367188 153.046875 117.785156 156.292969 105.117188 C 159.660156 91.984375 164.082031 79.601562 168.441406 68.703125 C 174.046875 64.863281 182.398438 63.765625 186.664062 58.589844" fill-rule="evenodd"/><path d="M 216.019531 42.40625 C 231.050781 73 238.808594 116.53125 249.429688 155.6875 C 260.660156 197.085938 273.347656 232.546875 283.851562 274.027344 C 286.726562 285.386719 294.25 307.253906 289.925781 314.488281 C 284.445312 323.664062 235.464844 326.105469 220.074219 319.542969 C 215.964844 317.789062 212.527344 312.8125 207.921875 311.449219 C 205.433594 303.09375 201.554688 298.566406 203.878906 289.203125 C 205.445312 282.855469 211.960938 280.25 212.984375 275.039062 C 214.769531 265.992188 209.265625 251.945312 207.921875 241.660156 C 206.402344 230.003906 204.054688 218.703125 198.8125 210.304688 C 189 221.886719 189.417969 240.019531 185.652344 256.832031 C 183.507812 266.414062 179.613281 275.859375 178.566406 285.152344 C 180.671875 292.296875 187.515625 295.324219 187.679688 302.347656 C 188.105469 320.632812 159.808594 324.824219 134.019531 324.601562 C 113.648438 324.421875 75.71875 328.289062 72.265625 309.429688 C 69.25 292.953125 87.515625 282.722656 104.664062 276.050781 C 118.25 199.949219 133.949219 127.753906 159.332031 61.625 C 181.089844 57.855469 190.949219 30.714844 216.019531 42.40625 M 199.824219 50.496094 C 194.140625 57.472656 188.414062 68.523438 184.640625 77.808594 C 175.453125 100.40625 165.804688 128.222656 161.355469 153.667969 C 152.730469 202.984375 147.886719 256.449219 128.957031 296.28125 C 116.730469 298.222656 101.730469 297.394531 103.648438 313.476562 C 118.539062 311.820312 188.433594 320.492188 172.488281 296.28125 C 167.722656 292.691406 162.746094 299.507812 160.339844 295.265625 C 166.296875 258.996094 178.363281 229.96875 186.664062 200.191406 C 198.867188 195.34375 213.96875 195.847656 225.132812 197.15625 C 227.859375 209.640625 230.546875 228.871094 233.230469 246.71875 C 235.949219 264.753906 243.351562 281.792969 242.34375 295.265625 C 236.855469 297.332031 236.226562 291.324219 228.175781 293.242188 C 221.195312 298.507812 225.265625 308.261719 230.195312 312.460938 C 250.632812 314.835938 267.421875 313.773438 280.816406 311.449219 C 269.53125 270.058594 252.753906 227.714844 242.34375 184.007812 C 231.296875 137.609375 224.984375 92.070312 207.921875 50.496094 C 203.894531 51.238281 203.851562 51.238281 199.824219 50.496094 M 168.441406 68.703125 C 164.082031 79.601562 159.660156 91.984375 156.292969 105.117188 C 153.046875 117.785156 147.589844 129.371094 144.144531 141.527344 C 138.027344 163.136719 135.109375 188.789062 130.984375 213.34375 C 127.238281 235.617188 119.816406 273.488281 107.699219 286.164062 C 90.921875 284.699219 71.34375 313.03125 97.574219 313.476562 C 92.953125 293.925781 115.3125 293.75 127.945312 288.1875 C 141.457031 252.425781 146.5625 210.59375 153.257812 169.847656 C 159.941406 129.164062 173.804688 92.578125 186.664062 59.601562 C 187.226562 59.609375 187.8125 58.777344 186.664062 58.589844 C 182.398438 63.765625 174.046875 64.863281 168.441406 68.703125 M 224.121094 278.074219 C 217.761719 282.941406 209.457031 293.941406 218.046875 302.347656 C 219.835938 298.066406 220.230469 292.394531 223.105469 289.203125 C 226.609375 287.972656 229.816406 286.460938 235.257812 287.175781 C 229.78125 260.617188 223.460938 234.90625 221.089844 205.253906 C 219.003906 203.910156 210.921875 203.332031 208.9375 205.253906 C 219.355469 224.347656 219.683594 256.007812 224.121094 278.074219" fill-rule="evenodd"/></svg>