<svg xmlns="http://www.w3.org/2000/svg" width="375" viewBox="0 0 375 375" height="375" version="1.0"><g><g><g><path d="M 83.28125 -11.953125 C 83.394531 -11.890625 83.484375 -11.78125 83.546875 -11.625 C 83.609375 -11.46875 83.640625 -11.316406 83.640625 -11.171875 C 83.691406 -10.828125 83.5 -10.585938 83.0625 -10.453125 C 82.625 -10.316406 82.070312 -10.226562 81.40625 -10.1875 C 80.75 -10.144531 80.085938 -10.125 79.421875 -10.125 C 78.585938 -10.125 77.96875 -10.09375 77.5625 -10.03125 C 77.144531 -9.957031 76.898438 -9.773438 76.828125 -9.484375 C 76.765625 -9.191406 76.765625 -8.695312 76.828125 -8 C 76.859375 -7.625 76.894531 -7.175781 76.9375 -6.65625 C 77.382812 0.882812 78.300781 8.367188 79.6875 15.796875 C 79.71875 15.929688 79.757812 16.054688 79.8125 16.171875 C 79.875 16.441406 79.90625 16.71875 79.90625 17 C 79.84375 17.488281 79.550781 17.832031 79.03125 18.03125 C 78.507812 18.238281 77.957031 18.234375 77.375 18.015625 C 76.800781 17.796875 76.425781 17.269531 76.25 16.4375 C 76.050781 15.3125 75.847656 14.195312 75.640625 13.09375 C 75.296875 11.5625 74.992188 10.015625 74.734375 8.453125 C 73.835938 3.179688 73.203125 -2.113281 72.828125 -7.4375 C 72.796875 -8.269531 72.65625 -8.785156 72.40625 -8.984375 C 72.164062 -9.191406 71.609375 -9.242188 70.734375 -9.140625 C 68.710938 -8.960938 66.71875 -8.753906 64.75 -8.515625 C 59.257812 -7.765625 53.75 -7.160156 48.21875 -6.703125 C 48.1875 -6.703125 48.15625 -6.703125 48.125 -6.703125 C 48.0625 -6.703125 47.992188 -6.703125 47.921875 -6.703125 C 46.085938 -6.734375 44.851562 -5.8125 44.21875 -3.9375 C 42.34375 1.195312 40.085938 6.144531 37.453125 10.90625 C 34.503906 16.320312 30.914062 21.285156 26.6875 25.796875 C 23.726562 28.816406 20.363281 31.28125 16.59375 33.1875 C 12.820312 35.101562 8.9375 36.441406 4.9375 37.203125 C 0.945312 37.972656 -2.867188 38.175781 -6.515625 37.8125 C -10.160156 37.445312 -13.332031 36.503906 -16.03125 34.984375 C -18.738281 33.472656 -20.703125 31.390625 -21.921875 28.734375 C -23.140625 26.085938 -23.296875 22.851562 -22.390625 19.03125 C -21.492188 15.5625 -19.84375 12.59375 -17.4375 10.125 C -15.039062 7.65625 -12.226562 5.578125 -9 3.890625 C -5.78125 2.210938 -2.4375 0.828125 1.03125 -0.265625 C 4.507812 -1.367188 7.796875 -2.296875 10.890625 -3.046875 C 15.429688 -4.203125 20.253906 -5.242188 25.359375 -6.171875 C 30.472656 -7.109375 35.359375 -7.773438 40.015625 -8.171875 C 41.222656 -8.203125 42.035156 -8.804688 42.453125 -9.984375 C 42.734375 -10.773438 43.046875 -11.554688 43.390625 -12.328125 C 43.535156 -12.679688 43.671875 -13.007812 43.796875 -13.3125 C 44.460938 -14.914062 45.125 -16.53125 45.78125 -18.15625 C 48.039062 -23.914062 50.472656 -29.722656 53.078125 -35.578125 C 55.679688 -41.429688 58.613281 -47.050781 61.875 -52.4375 C 65.144531 -57.820312 68.894531 -62.695312 73.125 -67.0625 C 74.195312 -68.101562 75.328125 -69.109375 76.515625 -70.078125 C 77.066406 -70.535156 77.835938 -70.882812 78.828125 -71.125 C 79.828125 -71.375 80.671875 -71.332031 81.359375 -71 C 82.054688 -70.664062 82.25 -69.835938 81.9375 -68.515625 C 81.207031 -65.785156 80.582031 -63.007812 80.0625 -60.1875 C 79.539062 -57.375 79.066406 -54.5625 78.640625 -51.75 C 78.640625 -51.601562 78.625 -51.460938 78.59375 -51.328125 C 77.613281 -44.953125 77.015625 -38.941406 76.796875 -33.296875 C 76.578125 -27.648438 76.484375 -21.617188 76.515625 -15.203125 C 76.515625 -14.503906 76.546875 -13.804688 76.609375 -13.109375 C 76.660156 -12.617188 76.90625 -12.359375 77.34375 -12.328125 C 78.113281 -12.285156 78.863281 -12.285156 79.59375 -12.328125 C 80.457031 -12.359375 81.328125 -12.359375 82.203125 -12.328125 C 82.578125 -12.285156 82.9375 -12.160156 83.28125 -11.953125 Z M 40.0625 -4 C 40.34375 -4.757812 40.367188 -5.222656 40.140625 -5.390625 C 39.910156 -5.566406 39.414062 -5.601562 38.65625 -5.5 C 34.96875 -5.019531 31.285156 -4.484375 27.609375 -3.890625 C 23.929688 -3.296875 20.285156 -2.566406 16.671875 -1.703125 C 16.148438 -1.554688 15.613281 -1.429688 15.0625 -1.328125 C 12.039062 -0.597656 8.800781 0.253906 5.34375 1.234375 C 1.894531 2.222656 -1.460938 3.484375 -4.734375 5.015625 C -8.003906 6.546875 -10.832031 8.457031 -13.21875 10.75 C -15.613281 13.039062 -17.285156 15.800781 -18.234375 19.03125 C -19.191406 23.0625 -18.957031 26.328125 -17.53125 28.828125 C -16.113281 31.328125 -13.878906 33.117188 -10.828125 34.203125 C -7.773438 35.296875 -4.332031 35.703125 -0.5 35.421875 C 3.332031 35.148438 7.160156 34.238281 10.984375 32.6875 C 14.804688 31.144531 18.234375 29.007812 21.265625 26.28125 C 25.492188 22.207031 29.082031 17.640625 32.03125 12.578125 C 33.625 9.941406 35.0625 7.234375 36.34375 4.453125 C 37.632812 1.671875 38.875 -1.144531 40.0625 -4 Z M 75.953125 -59.09375 C 75.953125 -59.164062 75.96875 -59.265625 76 -59.390625 C 76.101562 -59.960938 76.25 -60.75 76.4375 -61.75 C 76.632812 -62.75 76.765625 -63.65625 76.828125 -64.46875 C 76.929688 -65.15625 76.90625 -65.566406 76.75 -65.703125 C 76.59375 -65.835938 76.222656 -65.554688 75.640625 -64.859375 C 75.296875 -64.453125 74.945312 -64.046875 74.59375 -63.640625 C 73.269531 -62.171875 71.984375 -60.65625 70.734375 -59.09375 C 67.929688 -55.476562 65.3125 -51.40625 62.875 -46.875 C 60.445312 -42.34375 58.191406 -37.644531 56.109375 -32.78125 C 54.023438 -27.925781 52.0625 -23.191406 50.21875 -18.578125 C 49.34375 -16.453125 48.488281 -14.398438 47.65625 -12.421875 C 46.925781 -10.722656 46.648438 -9.707031 46.828125 -9.375 C 47.003906 -9.039062 47.800781 -9 49.21875 -9.25 C 49.425781 -9.25 49.671875 -9.265625 49.953125 -9.296875 C 54.234375 -9.710938 58.488281 -10.179688 62.71875 -10.703125 C 64.5625 -10.921875 66.398438 -11.132812 68.234375 -11.34375 C 68.609375 -11.40625 68.96875 -11.453125 69.3125 -11.484375 C 69.945312 -11.554688 70.597656 -11.625 71.265625 -11.6875 C 71.671875 -11.726562 71.96875 -11.851562 72.15625 -12.0625 C 72.34375 -12.269531 72.4375 -12.617188 72.4375 -13.109375 C 72.4375 -13.410156 72.4375 -13.738281 72.4375 -14.09375 C 72.4375 -14.257812 72.4375 -14.429688 72.4375 -14.609375 C 72.40625 -22.460938 72.59375 -29.84375 73 -36.75 C 73.40625 -43.65625 74.390625 -51.101562 75.953125 -59.09375 Z M 75.953125 -59.09375" transform="translate(28.349 184.458)"/></g></g></g><g><g><g><path d="M 21.6875 -11.90625 C 21.863281 -11.875 21.984375 -11.820312 22.046875 -11.75 C 22.109375 -11.675781 22.175781 -11.539062 22.25 -11.34375 C 22.3125 -11.132812 22.238281 -10.890625 22.03125 -10.609375 C 21.832031 -10.328125 21.644531 -10.097656 21.46875 -9.921875 C 20.175781 -8.703125 18.660156 -7.972656 16.921875 -7.734375 C 15.929688 -7.597656 14.9375 -7.5625 13.9375 -7.625 C 12.945312 -7.695312 11.972656 -7.941406 11.015625 -8.359375 C 10.316406 -8.703125 9.664062 -8.597656 9.0625 -8.046875 C 7.820312 -6.910156 6.519531 -5.820312 5.15625 -4.78125 C 4.46875 -4.257812 3.738281 -3.820312 2.96875 -3.46875 C 2.207031 -3.125 1.375 -2.929688 0.46875 -2.890625 C -2.164062 -2.929688 -3.207031 -4.21875 -2.65625 -6.75 C -2.625 -6.851562 -2.582031 -6.9375 -2.53125 -7 C -1.769531 -9.050781 -0.769531 -10.898438 0.46875 -12.546875 C 1.71875 -14.203125 3.296875 -15.582031 5.203125 -16.6875 C 6.472656 -17.425781 7.832031 -17.710938 9.28125 -17.546875 C 9.65625 -17.460938 10.019531 -17.316406 10.375 -17.109375 C 10.800781 -16.910156 10.972656 -16.582031 10.890625 -16.125 C 10.859375 -15.976562 10.789062 -15.851562 10.6875 -15.75 C 10.582031 -15.644531 10.476562 -15.546875 10.375 -15.453125 C 10.3125 -15.378906 10.226562 -15.328125 10.125 -15.296875 C 10.019531 -15.265625 9.910156 -15.25 9.796875 -15.25 C 8.753906 -15.21875 7.859375 -14.910156 7.109375 -14.328125 C 6.359375 -13.753906 5.675781 -13.101562 5.0625 -12.375 C 4.375 -11.601562 3.734375 -10.75 3.140625 -9.8125 C 2.546875 -8.882812 2.0625 -7.773438 1.6875 -6.484375 C 3.070312 -7.285156 4.160156 -8.082031 4.953125 -8.875 C 5.117188 -9.050781 5.289062 -9.207031 5.46875 -9.34375 C 5.613281 -9.488281 5.753906 -9.617188 5.890625 -9.734375 C 6.585938 -10.378906 7.316406 -10.945312 8.078125 -11.4375 C 8.941406 -11.925781 9.800781 -12.171875 10.65625 -12.171875 C 11.507812 -12.171875 12.335938 -11.820312 13.140625 -11.125 C 14.242188 -10.144531 15.316406 -9.757812 16.359375 -9.96875 C 17.398438 -10.1875 18.367188 -10.554688 19.265625 -11.078125 C 20.179688 -11.628906 20.988281 -11.90625 21.6875 -11.90625 Z M 21.6875 -11.90625" transform="translate(113.881 184.458)"/></g></g></g><g><g><g><path d="M 21.046875 -11.171875 C 21.628906 -11.773438 22.144531 -12.007812 22.59375 -11.875 C 23.039062 -11.75 23.320312 -11.414062 23.4375 -10.875 C 23.550781 -10.34375 23.394531 -9.75 22.96875 -9.09375 C 22.09375 -7.8125 20.863281 -6.429688 19.28125 -4.953125 C 17.707031 -3.484375 16.007812 -2.195312 14.1875 -1.09375 C 12.363281 0 10.640625 0.59375 9.015625 0.6875 C 5.722656 0.863281 4.175781 -0.710938 4.375 -4.046875 C 4.40625 -4.492188 4.492188 -5.085938 4.640625 -5.828125 C 4.785156 -6.546875 4.898438 -7.242188 4.984375 -7.921875 C 5.066406 -8.609375 5.023438 -9.066406 4.859375 -9.296875 C 4.628906 -9.503906 4.375 -9.609375 4.09375 -9.609375 C 3.820312 -9.609375 3.53125 -9.578125 3.21875 -9.515625 C 2.875 -9.441406 2.550781 -9.425781 2.25 -9.46875 C 0.632812 -9.644531 -0.203125 -10.472656 -0.265625 -11.953125 C -0.296875 -14.003906 0.0820312 -15.96875 0.875 -17.84375 C 1.125 -18.425781 1.597656 -18.8125 2.296875 -19 C 2.992188 -19.195312 3.632812 -19.125 4.21875 -18.78125 C 4.59375 -18.539062 4.765625 -18.210938 4.734375 -17.796875 C 4.671875 -17.234375 4.566406 -16.675781 4.421875 -16.125 C 4.359375 -15.882812 4.304688 -15.640625 4.265625 -15.390625 C 3.960938 -13.929688 3.960938 -13.175781 4.265625 -13.125 C 4.578125 -13.070312 5.253906 -13.460938 6.296875 -14.296875 C 7.066406 -14.847656 7.921875 -15.078125 8.859375 -14.984375 C 10.097656 -14.867188 10.601562 -14.175781 10.375 -12.90625 C 10.164062 -12.03125 9.953125 -11.144531 9.734375 -10.25 C 9.253906 -8.40625 8.890625 -6.539062 8.640625 -4.65625 C 8.546875 -3.382812 8.773438 -2.640625 9.328125 -2.421875 C 9.878906 -2.210938 10.613281 -2.34375 11.53125 -2.8125 C 12.457031 -3.289062 13.429688 -3.925781 14.453125 -4.71875 C 15.472656 -5.519531 16.375 -6.300781 17.15625 -7.0625 C 17.9375 -7.832031 18.46875 -8.390625 18.75 -8.734375 C 18.894531 -8.910156 19.113281 -9.148438 19.40625 -9.453125 C 19.695312 -9.765625 20 -10.078125 20.3125 -10.390625 C 20.65625 -10.734375 20.898438 -10.992188 21.046875 -11.171875 Z M 21.046875 -11.171875" transform="translate(133.933 184.458)"/></g></g></g><g><g><g><path d="M 21.6875 -11.90625 C 21.863281 -11.875 21.984375 -11.820312 22.046875 -11.75 C 22.109375 -11.675781 22.175781 -11.539062 22.25 -11.34375 C 22.3125 -11.132812 22.238281 -10.890625 22.03125 -10.609375 C 21.832031 -10.328125 21.644531 -10.097656 21.46875 -9.921875 C 20.175781 -8.703125 18.660156 -7.972656 16.921875 -7.734375 C 15.929688 -7.597656 14.9375 -7.5625 13.9375 -7.625 C 12.945312 -7.695312 11.972656 -7.941406 11.015625 -8.359375 C 10.316406 -8.703125 9.664062 -8.597656 9.0625 -8.046875 C 7.820312 -6.910156 6.519531 -5.820312 5.15625 -4.78125 C 4.46875 -4.257812 3.738281 -3.820312 2.96875 -3.46875 C 2.207031 -3.125 1.375 -2.929688 0.46875 -2.890625 C -2.164062 -2.929688 -3.207031 -4.21875 -2.65625 -6.75 C -2.625 -6.851562 -2.582031 -6.9375 -2.53125 -7 C -1.769531 -9.050781 -0.769531 -10.898438 0.46875 -12.546875 C 1.71875 -14.203125 3.296875 -15.582031 5.203125 -16.6875 C 6.472656 -17.425781 7.832031 -17.710938 9.28125 -17.546875 C 9.65625 -17.460938 10.019531 -17.316406 10.375 -17.109375 C 10.800781 -16.910156 10.972656 -16.582031 10.890625 -16.125 C 10.859375 -15.976562 10.789062 -15.851562 10.6875 -15.75 C 10.582031 -15.644531 10.476562 -15.546875 10.375 -15.453125 C 10.3125 -15.378906 10.226562 -15.328125 10.125 -15.296875 C 10.019531 -15.265625 9.910156 -15.25 9.796875 -15.25 C 8.753906 -15.21875 7.859375 -14.910156 7.109375 -14.328125 C 6.359375 -13.753906 5.675781 -13.101562 5.0625 -12.375 C 4.375 -11.601562 3.734375 -10.75 3.140625 -9.8125 C 2.546875 -8.882812 2.0625 -7.773438 1.6875 -6.484375 C 3.070312 -7.285156 4.160156 -8.082031 4.953125 -8.875 C 5.117188 -9.050781 5.289062 -9.207031 5.46875 -9.34375 C 5.613281 -9.488281 5.753906 -9.617188 5.890625 -9.734375 C 6.585938 -10.378906 7.316406 -10.945312 8.078125 -11.4375 C 8.941406 -11.925781 9.800781 -12.171875 10.65625 -12.171875 C 11.507812 -12.171875 12.335938 -11.820312 13.140625 -11.125 C 14.242188 -10.144531 15.316406 -9.757812 16.359375 -9.96875 C 17.398438 -10.1875 18.367188 -10.554688 19.265625 -11.078125 C 20.179688 -11.628906 20.988281 -11.90625 21.6875 -11.90625 Z M 21.6875 -11.90625" transform="translate(154.363 184.458)"/></g></g></g><g><g><g><path d="M 12.546875 -16.03125 C 12.828125 -15.945312 13.046875 -15.816406 13.203125 -15.640625 C 13.367188 -15.472656 13.425781 -15.238281 13.375 -14.9375 C 13.25 -14.238281 13.078125 -13.5625 12.859375 -12.90625 C 12.441406 -11.507812 11.914062 -10.160156 11.28125 -8.859375 C 10.644531 -7.554688 9.820312 -6.347656 8.8125 -5.234375 C 8.488281 -4.890625 8.160156 -4.566406 7.828125 -4.265625 C 7.503906 -3.972656 7.117188 -3.757812 6.671875 -3.625 C 5.628906 -3.3125 4.640625 -3.273438 3.703125 -3.515625 C 2.765625 -3.753906 1.992188 -4.5 1.390625 -5.75 C 0.316406 -8.144531 -0.332031 -10.664062 -0.5625 -13.3125 C -0.644531 -14.25 -0.335938 -14.804688 0.359375 -14.984375 C 0.953125 -15.160156 1.5 -15.175781 2 -15.03125 C 2.507812 -14.882812 2.851562 -14.609375 3.03125 -14.203125 C 3.300781 -13.472656 3.503906 -12.722656 3.640625 -11.953125 C 3.703125 -11.742188 3.757812 -11.539062 3.8125 -11.34375 C 3.875 -10.988281 3.9375 -10.65625 4 -10.34375 C 4.21875 -9.445312 4.4375 -8.703125 4.65625 -8.109375 C 4.882812 -7.515625 5.207031 -7.273438 5.625 -7.390625 C 6.039062 -7.515625 6.597656 -8.1875 7.296875 -9.40625 C 8.304688 -11.132812 9.15625 -12.957031 9.84375 -14.875 C 10.363281 -16.050781 11.265625 -16.4375 12.546875 -16.03125 Z M 12.546875 -16.03125" transform="translate(174.415 184.458)"/></g></g></g><g><g><g><path d="M 66.0625 -11.859375 C 66.289062 -11.546875 66.28125 -11.128906 66.03125 -10.609375 C 65.789062 -10.085938 64.828125 -9.453125 63.140625 -8.703125 C 61.460938 -7.953125 59.546875 -7.285156 57.390625 -6.703125 C 57.003906 -6.640625 56.609375 -6.566406 56.203125 -6.484375 C 55.398438 -6.390625 54.96875 -5.941406 54.90625 -5.140625 C 54.695312 -3.429688 54.421875 -1.75 54.078125 -0.09375 C 52.773438 5.851562 50.144531 11.132812 46.1875 15.75 C 41.8125 20.78125 36.648438 24.769531 30.703125 27.71875 C 24.753906 30.675781 18.460938 32.421875 11.828125 32.953125 C 5.191406 33.492188 -1.296875 32.722656 -7.640625 30.640625 C -10.847656 29.597656 -13.800781 28.101562 -16.5 26.15625 C -18.03125 25.082031 -19.332031 23.820312 -20.40625 22.375 C -22.539062 19.34375 -22.679688 16.21875 -20.828125 13 C -19.648438 10.976562 -17.929688 9.203125 -15.671875 7.671875 C -13.410156 6.140625 -10.875 4.820312 -8.0625 3.71875 C -5.257812 2.613281 -2.421875 1.671875 0.453125 0.890625 C 3.335938 0.109375 6.019531 -0.582031 8.5 -1.1875 C 9.257812 -1.382812 10 -1.570312 10.71875 -1.75 C 11.5 -1.957031 11.90625 -2.460938 11.9375 -3.265625 C 11.9375 -3.441406 11.953125 -3.613281 11.984375 -3.78125 C 11.984375 -4.019531 11.984375 -4.242188 11.984375 -4.453125 C 12.015625 -5.109375 12.046875 -5.769531 12.078125 -6.4375 C 12.328125 -12.894531 12.535156 -19.363281 12.703125 -25.84375 C 12.878906 -32.320312 12.882812 -38.785156 12.71875 -45.234375 C 12.6875 -46.484375 12.597656 -47.734375 12.453125 -48.984375 C 12.367188 -49.640625 12.296875 -50.300781 12.234375 -50.96875 C 12.128906 -52.039062 12.476562 -52.679688 13.28125 -52.890625 C 14.664062 -53.203125 15.550781 -52.765625 15.9375 -51.578125 C 16.1875 -50.617188 16.34375 -49.632812 16.40625 -48.625 C 16.78125 -44.519531 16.953125 -40.410156 16.921875 -36.296875 C 16.921875 -35.941406 16.9375 -35.59375 16.96875 -35.25 C 16.96875 -35.101562 16.96875 -34.976562 16.96875 -34.875 C 17.175781 -34.726562 17.359375 -34.675781 17.515625 -34.71875 C 17.671875 -34.757812 17.804688 -34.828125 17.921875 -34.921875 C 20.316406 -37.316406 22.625 -39.769531 24.84375 -42.28125 C 27.0625 -44.800781 29.125 -47.492188 31.03125 -50.359375 C 32.625 -52.671875 33.859375 -55.1875 34.734375 -57.90625 C 35.046875 -59.070312 35.203125 -60.265625 35.203125 -61.484375 C 35.140625 -63.703125 34.367188 -65.289062 32.890625 -66.25 C 31.421875 -67.207031 29.546875 -67.710938 27.265625 -67.765625 C 24.992188 -67.816406 22.609375 -67.582031 20.109375 -67.0625 C 17.609375 -66.539062 15.296875 -65.90625 13.171875 -65.15625 C 11.046875 -64.40625 9.414062 -63.722656 8.28125 -63.109375 C 6.8125 -62.335938 5.492188 -61.398438 4.328125 -60.296875 C 4.285156 -60.265625 4.25 -60.222656 4.21875 -60.171875 C 3.832031 -59.878906 3.535156 -59.535156 3.328125 -59.140625 C 3.128906 -58.753906 3.164062 -58.285156 3.4375 -57.734375 C 3.507812 -57.535156 3.46875 -57.351562 3.3125 -57.1875 C 3.15625 -57.03125 2.988281 -56.921875 2.8125 -56.859375 C 2.320312 -56.691406 1.816406 -56.609375 1.296875 -56.609375 C 0.429688 -56.523438 -0.257812 -56.847656 -0.78125 -57.578125 C -1.019531 -57.972656 -1.078125 -58.347656 -0.953125 -58.703125 C -0.835938 -59.066406 -0.660156 -59.410156 -0.421875 -59.734375 C -0.421875 -59.765625 -0.398438 -59.78125 -0.359375 -59.78125 C 0.160156 -60.613281 0.773438 -61.34375 1.484375 -61.96875 C 2.203125 -62.59375 2.976562 -63.164062 3.8125 -63.6875 C 7.457031 -66.082031 11.5625 -67.800781 16.125 -68.84375 C 20.6875 -69.882812 25.132812 -70.234375 29.46875 -69.890625 C 31.320312 -69.710938 33.0625 -69.222656 34.6875 -68.421875 C 38.125 -66.648438 39.613281 -63.835938 39.15625 -59.984375 C 38.8125 -57.765625 38.140625 -55.660156 37.140625 -53.671875 C 35.410156 -50.242188 33.304688 -47.054688 30.828125 -44.109375 C 27.742188 -40.347656 24.484375 -36.765625 21.046875 -33.359375 C 19.796875 -32.109375 19.203125 -31.359375 19.265625 -31.109375 C 19.328125 -30.867188 19.96875 -30.820312 21.1875 -30.96875 C 21.4375 -30.96875 21.722656 -30.984375 22.046875 -31.015625 C 24.742188 -31.179688 27.515625 -31.265625 30.359375 -31.265625 C 33.210938 -31.265625 35.972656 -30.988281 38.640625 -30.4375 C 41.316406 -29.882812 43.773438 -28.882812 46.015625 -27.4375 C 48.265625 -26 50.144531 -23.914062 51.65625 -21.1875 C 53.300781 -18.125 54.328125 -14.875 54.734375 -11.4375 C 54.765625 -11.226562 54.78125 -11.019531 54.78125 -10.8125 C 54.894531 -9.832031 55.515625 -9.378906 56.640625 -9.453125 C 57.765625 -9.523438 59.09375 -9.804688 60.625 -10.296875 C 62.15625 -10.785156 63.382812 -11.242188 64.3125 -11.671875 C 65.25 -12.109375 65.832031 -12.171875 66.0625 -11.859375 Z M 50.609375 -4.828125 C 50.660156 -5.066406 50.613281 -5.253906 50.46875 -5.390625 C 50.332031 -5.535156 50.144531 -5.609375 49.90625 -5.609375 C 48.582031 -5.460938 47.253906 -5.320312 45.921875 -5.1875 C 45.753906 -5.15625 45.582031 -5.125 45.40625 -5.09375 C 39.09375 -4.28125 32.929688 -3.285156 26.921875 -2.109375 C 23.523438 -1.492188 20.078125 -0.910156 16.578125 -0.359375 C 15.597656 -0.179688 15.140625 0.378906 15.203125 1.328125 C 15.171875 1.734375 15.125 2.128906 15.0625 2.515625 C 14.914062 3.035156 14.566406 3.363281 14.015625 3.5 C 13.410156 3.707031 12.816406 3.691406 12.234375 3.453125 C 11.953125 3.316406 11.78125 3.144531 11.71875 2.9375 C 11.65625 2.726562 11.597656 2.5 11.546875 2.25 C 11.546875 2.15625 11.53125 2.050781 11.5 1.9375 C 11.4375 1.53125 11.328125 1.265625 11.171875 1.140625 C 11.015625 1.015625 10.75 0.988281 10.375 1.0625 C 9.039062 1.269531 7.265625 1.660156 5.046875 2.234375 C 2.835938 2.804688 0.441406 3.539062 -2.140625 4.4375 C -4.734375 5.34375 -7.222656 6.40625 -9.609375 7.625 C -11.992188 8.84375 -13.96875 10.203125 -15.53125 11.703125 C -17.09375 13.210938 -17.972656 14.847656 -18.171875 16.609375 C -18.378906 18.367188 -17.617188 20.25 -15.890625 22.25 C -14.390625 23.925781 -12.632812 25.269531 -10.625 26.28125 C -4.789062 29.226562 1.285156 30.691406 7.609375 30.671875 C 13.929688 30.648438 20.015625 29.351562 25.859375 26.78125 C 31.710938 24.21875 36.835938 20.59375 41.234375 15.90625 C 45.628906 11.28125 48.535156 5.84375 49.953125 -0.40625 C 50.222656 -1.71875 50.425781 -3.066406 50.5625 -4.453125 C 50.5625 -4.585938 50.578125 -4.710938 50.609375 -4.828125 Z M 49.265625 -8.09375 C 49.898438 -8.175781 50.316406 -8.328125 50.515625 -8.546875 C 50.722656 -8.765625 50.796875 -9.191406 50.734375 -9.828125 C 50.523438 -12.742188 49.863281 -15.578125 48.75 -18.328125 C 47.4375 -21.398438 45.691406 -23.726562 43.515625 -25.3125 C 41.347656 -26.90625 38.90625 -27.945312 36.1875 -28.4375 C 33.476562 -28.9375 30.660156 -29.125 27.734375 -29 C 24.804688 -28.882812 21.929688 -28.671875 19.109375 -28.359375 C 18.691406 -28.328125 18.28125 -28.28125 17.875 -28.21875 C 17.269531 -28.132812 16.890625 -27.894531 16.734375 -27.5 C 16.578125 -27.113281 16.523438 -26.660156 16.578125 -26.140625 C 16.578125 -26.054688 16.578125 -26 16.578125 -25.96875 C 16.460938 -20.132812 16.160156 -14.003906 15.671875 -7.578125 C 15.671875 -7.515625 15.671875 -7.410156 15.671875 -7.265625 C 15.671875 -6.828125 15.671875 -6.238281 15.671875 -5.5 C 15.578125 -4.1875 15.664062 -3.414062 15.9375 -3.1875 C 16.21875 -2.957031 17 -3 18.28125 -3.3125 C 19.695312 -3.550781 21.097656 -3.8125 22.484375 -4.09375 C 26.910156 -4.925781 31.363281 -5.65625 35.84375 -6.28125 C 40.3125 -6.875 44.785156 -7.476562 49.265625 -8.09375 Z M 49.265625 -8.09375" transform="translate(207.321 184.458)"/></g></g></g><g><g><g><path d="M 21.6875 -11.90625 C 21.863281 -11.875 21.984375 -11.820312 22.046875 -11.75 C 22.109375 -11.675781 22.175781 -11.539062 22.25 -11.34375 C 22.3125 -11.132812 22.238281 -10.890625 22.03125 -10.609375 C 21.832031 -10.328125 21.644531 -10.097656 21.46875 -9.921875 C 20.175781 -8.703125 18.660156 -7.972656 16.921875 -7.734375 C 15.929688 -7.597656 14.9375 -7.5625 13.9375 -7.625 C 12.945312 -7.695312 11.972656 -7.941406 11.015625 -8.359375 C 10.316406 -8.703125 9.664062 -8.597656 9.0625 -8.046875 C 7.820312 -6.910156 6.519531 -5.820312 5.15625 -4.78125 C 4.46875 -4.257812 3.738281 -3.820312 2.96875 -3.46875 C 2.207031 -3.125 1.375 -2.929688 0.46875 -2.890625 C -2.164062 -2.929688 -3.207031 -4.21875 -2.65625 -6.75 C -2.625 -6.851562 -2.582031 -6.9375 -2.53125 -7 C -1.769531 -9.050781 -0.769531 -10.898438 0.46875 -12.546875 C 1.71875 -14.203125 3.296875 -15.582031 5.203125 -16.6875 C 6.472656 -17.425781 7.832031 -17.710938 9.28125 -17.546875 C 9.65625 -17.460938 10.019531 -17.316406 10.375 -17.109375 C 10.800781 -16.910156 10.972656 -16.582031 10.890625 -16.125 C 10.859375 -15.976562 10.789062 -15.851562 10.6875 -15.75 C 10.582031 -15.644531 10.476562 -15.546875 10.375 -15.453125 C 10.3125 -15.378906 10.226562 -15.328125 10.125 -15.296875 C 10.019531 -15.265625 9.910156 -15.25 9.796875 -15.25 C 8.753906 -15.21875 7.859375 -14.910156 7.109375 -14.328125 C 6.359375 -13.753906 5.675781 -13.101562 5.0625 -12.375 C 4.375 -11.601562 3.734375 -10.75 3.140625 -9.8125 C 2.546875 -8.882812 2.0625 -7.773438 1.6875 -6.484375 C 3.070312 -7.285156 4.160156 -8.082031 4.953125 -8.875 C 5.117188 -9.050781 5.289062 -9.207031 5.46875 -9.34375 C 5.613281 -9.488281 5.753906 -9.617188 5.890625 -9.734375 C 6.585938 -10.378906 7.316406 -10.945312 8.078125 -11.4375 C 8.941406 -11.925781 9.800781 -12.171875 10.65625 -12.171875 C 11.507812 -12.171875 12.335938 -11.820312 13.140625 -11.125 C 14.242188 -10.144531 15.316406 -9.757812 16.359375 -9.96875 C 17.398438 -10.1875 18.367188 -10.554688 19.265625 -11.078125 C 20.179688 -11.628906 20.988281 -11.90625 21.6875 -11.90625 Z M 21.6875 -11.90625" transform="translate(271.95 184.458)"/></g></g></g><g><g><g><path d="M 32.8125 -11.953125 C 33.125 -11.984375 33.375 -11.9375 33.5625 -11.8125 C 33.757812 -11.695312 33.859375 -11.46875 33.859375 -11.125 C 33.921875 -10.945312 33.851562 -10.691406 33.65625 -10.359375 C 33.46875 -10.035156 33.25 -9.71875 33 -9.40625 C 32.757812 -9.101562 32.578125 -8.878906 32.453125 -8.734375 C 31.304688 -7.515625 30.035156 -6.710938 28.640625 -6.328125 C 27.253906 -5.941406 25.765625 -5.890625 24.171875 -6.171875 C 23.398438 -6.316406 22.726562 -6.628906 22.15625 -7.109375 C 21.59375 -7.597656 21.097656 -8.1875 20.671875 -8.875 C 20.640625 -8.925781 20.609375 -8.96875 20.578125 -9 C 20.085938 -9.789062 19.550781 -10.570312 18.96875 -11.34375 C 18.675781 -11.71875 18.398438 -11.90625 18.140625 -11.90625 C 17.878906 -11.90625 17.578125 -11.734375 17.234375 -11.390625 C 16.191406 -10.410156 15.289062 -9.3125 14.53125 -8.09375 C 13.8125 -7.019531 12.769531 -6.539062 11.40625 -6.65625 C 10.394531 -6.71875 9.734375 -7.238281 9.421875 -8.21875 C 9.359375 -8.445312 9.328125 -8.691406 9.328125 -8.953125 C 9.242188 -10.191406 8.96875 -10.550781 8.5 -10.03125 C 8.039062 -9.507812 7.582031 -8.800781 7.125 -7.90625 C 6.945312 -7.5625 6.742188 -7.210938 6.515625 -6.859375 C 6.273438 -6.429688 6.03125 -6.015625 5.78125 -5.609375 C 5.539062 -5.148438 5.28125 -4.703125 5 -4.265625 C 4.507812 -3.566406 3.828125 -3.175781 2.953125 -3.09375 C 1.359375 -2.957031 0.460938 -3.65625 0.265625 -5.1875 C 0.203125 -6.507812 0.144531 -7.828125 0.09375 -9.140625 C 0.0625 -9.734375 0.03125 -10.34375 0 -10.96875 C -0.03125 -11.488281 -0.046875 -12.03125 -0.046875 -12.59375 C -0.128906 -13.550781 -0.1875 -14.503906 -0.21875 -15.453125 C -0.25 -16.703125 0.328125 -17.375 1.515625 -17.46875 C 2.796875 -17.582031 3.535156 -17.0625 3.734375 -15.90625 C 3.878906 -14.863281 3.992188 -13.820312 4.078125 -12.78125 C 4.078125 -12.09375 4.148438 -11.671875 4.296875 -11.515625 C 4.441406 -11.367188 4.585938 -11.335938 4.734375 -11.421875 C 4.878906 -11.503906 5.019531 -11.632812 5.15625 -11.8125 C 5.15625 -11.8125 5.15625 -11.828125 5.15625 -11.859375 C 5.300781 -12.035156 5.4375 -12.207031 5.5625 -12.375 C 5.90625 -12.863281 6.273438 -13.316406 6.671875 -13.734375 C 7.710938 -14.628906 8.929688 -15.007812 10.328125 -14.875 C 11.535156 -14.769531 12.398438 -14.179688 12.921875 -13.109375 C 13.097656 -12.722656 13.375 -12.671875 13.75 -12.953125 C 14.132812 -13.234375 14.644531 -13.5625 15.28125 -13.9375 C 15.914062 -14.320312 16.625 -14.582031 17.40625 -14.71875 C 19.226562 -15.101562 20.789062 -14.632812 22.09375 -13.3125 C 22.675781 -12.65625 23.242188 -11.941406 23.796875 -11.171875 C 23.835938 -11.109375 23.890625 -11.039062 23.953125 -10.96875 C 24.097656 -10.757812 24.242188 -10.535156 24.390625 -10.296875 C 24.484375 -10.085938 24.597656 -9.875 24.734375 -9.65625 C 25.316406 -8.894531 25.929688 -8.503906 26.578125 -8.484375 C 27.234375 -8.472656 27.878906 -8.675781 28.515625 -9.09375 C 29.148438 -9.519531 29.769531 -9.992188 30.375 -10.515625 C 30.84375 -10.921875 31.28125 -11.257812 31.6875 -11.53125 C 32.09375 -11.8125 32.46875 -11.953125 32.8125 -11.953125 Z M 32.8125 -11.953125" transform="translate(292.001 184.458)"/></g></g></g><g><g><g><path d="M 28.640625 -11.8125 C 29.367188 -11.414062 29.382812 -10.878906 28.6875 -10.203125 C 28 -9.535156 26.957031 -8.816406 25.5625 -8.046875 C 24.175781 -7.285156 22.78125 -6.59375 21.375 -5.96875 C 19.96875 -5.351562 18.9375 -4.898438 18.28125 -4.609375 C 18.039062 -4.503906 17.90625 -4.4375 17.875 -4.40625 C 16.03125 -3.5 14.253906 -2.539062 12.546875 -1.53125 C 10.835938 -0.53125 9.015625 0.453125 7.078125 1.421875 C 6.179688 1.910156 5.210938 1.984375 4.171875 1.640625 C 3.929688 1.523438 3.765625 1.328125 3.671875 1.046875 C 3.585938 0.773438 3.632812 0.550781 3.8125 0.375 C 3.84375 0.34375 3.890625 0.296875 3.953125 0.234375 C 4.648438 -0.359375 5.382812 -0.878906 6.15625 -1.328125 C 7.144531 -1.953125 7.925781 -2.828125 8.5 -3.953125 C 9.082031 -5.085938 9.53125 -6.25 9.84375 -7.4375 C 10.082031 -8.394531 10.242188 -9.363281 10.328125 -10.34375 C 10.390625 -10.757812 10.367188 -11.164062 10.265625 -11.5625 C 10.160156 -11.96875 9.921875 -12.289062 9.546875 -12.53125 C 9.023438 -12.8125 8.457031 -12.691406 7.84375 -12.171875 C 7.238281 -11.648438 6.65625 -10.925781 6.09375 -10 C 5.53125 -9.082031 5.0625 -8.171875 4.6875 -7.265625 C 4.3125 -6.367188 4.066406 -5.675781 3.953125 -5.1875 C 3.742188 -4.3125 3.191406 -3.84375 2.296875 -3.78125 C 1.171875 -3.644531 0.523438 -4.128906 0.359375 -5.234375 C 0.0546875 -7.773438 -0.078125 -11.550781 -0.046875 -16.5625 C -0.015625 -21.582031 0.207031 -26.945312 0.625 -32.65625 C 1.039062 -38.375 1.679688 -43.535156 2.546875 -48.140625 C 3.421875 -52.742188 4.515625 -55.910156 5.828125 -57.640625 C 6.691406 -58.679688 7.816406 -59.179688 9.203125 -59.140625 C 10.941406 -59.109375 12.128906 -58.28125 12.765625 -56.65625 C 13.453125 -54.769531 13.78125 -52.53125 13.75 -49.9375 C 13.71875 -47.351562 13.484375 -44.78125 13.046875 -42.21875 C 12.617188 -39.65625 12.160156 -37.46875 11.671875 -35.65625 C 10.804688 -32.382812 9.820312 -29.171875 8.71875 -26.015625 C 7.625 -22.859375 6.335938 -19.789062 4.859375 -16.8125 C 4.773438 -16.695312 4.71875 -16.59375 4.6875 -16.5 C 4.476562 -16.1875 4.320312 -15.828125 4.21875 -15.421875 C 4.125 -15.015625 4.207031 -14.535156 4.46875 -13.984375 C 4.675781 -14.097656 4.867188 -14.203125 5.046875 -14.296875 C 5.441406 -14.472656 5.8125 -14.644531 6.15625 -14.8125 C 7.257812 -15.269531 8.4375 -15.484375 9.6875 -15.453125 C 12.882812 -15.171875 14.5 -13.4375 14.53125 -10.25 C 14.5 -9.476562 14.414062 -8.710938 14.28125 -7.953125 C 14.101562 -6.910156 14.289062 -6.367188 14.84375 -6.328125 C 15.394531 -6.296875 16.207031 -6.5625 17.28125 -7.125 C 17.363281 -7.15625 17.472656 -7.203125 17.609375 -7.265625 C 18.398438 -7.648438 19.597656 -8.222656 21.203125 -8.984375 C 22.804688 -9.742188 24.34375 -10.421875 25.8125 -11.015625 C 27.289062 -11.609375 28.234375 -11.875 28.640625 -11.8125 Z M 5.15625 -36.640625 C 5.082031 -35.773438 4.984375 -34.59375 4.859375 -33.09375 C 4.710938 -31.289062 4.550781 -29.425781 4.375 -27.5 C 4.207031 -25.582031 4.082031 -24.0625 4 -22.9375 C 4.519531 -23.632812 5.078125 -25.078125 5.671875 -27.265625 C 6.265625 -29.460938 6.828125 -31.878906 7.359375 -34.515625 C 7.898438 -37.148438 8.34375 -39.460938 8.6875 -41.453125 C 9.03125 -43.453125 9.226562 -44.613281 9.28125 -44.9375 C 9.3125 -45.195312 9.367188 -45.832031 9.453125 -46.84375 C 9.546875 -47.851562 9.609375 -48.9375 9.640625 -50.09375 C 9.671875 -51.257812 9.625 -52.269531 9.5 -53.125 C 9.382812 -53.976562 9.140625 -54.421875 8.765625 -54.453125 C 8.648438 -54.421875 8.539062 -54.34375 8.4375 -54.21875 C 8.332031 -54.101562 8.242188 -53.972656 8.171875 -53.828125 C 7.960938 -53.273438 7.785156 -52.703125 7.640625 -52.109375 C 7.609375 -52.046875 7.59375 -51.957031 7.59375 -51.84375 C 6.90625 -49.382812 6.378906 -46.878906 6.015625 -44.328125 C 5.648438 -41.773438 5.363281 -39.210938 5.15625 -36.640625 Z M 5.15625 -36.640625" transform="translate(323.25 184.458)"/></g></g></g><g><g><g><path d="M 21.6875 -11.90625 C 21.863281 -11.875 21.984375 -11.820312 22.046875 -11.75 C 22.109375 -11.675781 22.175781 -11.539062 22.25 -11.34375 C 22.3125 -11.132812 22.238281 -10.890625 22.03125 -10.609375 C 21.832031 -10.328125 21.644531 -10.097656 21.46875 -9.921875 C 20.175781 -8.703125 18.660156 -7.972656 16.921875 -7.734375 C 15.929688 -7.597656 14.9375 -7.5625 13.9375 -7.625 C 12.945312 -7.695312 11.972656 -7.941406 11.015625 -8.359375 C 10.316406 -8.703125 9.664062 -8.597656 9.0625 -8.046875 C 7.820312 -6.910156 6.519531 -5.820312 5.15625 -4.78125 C 4.46875 -4.257812 3.738281 -3.820312 2.96875 -3.46875 C 2.207031 -3.125 1.375 -2.929688 0.46875 -2.890625 C -2.164062 -2.929688 -3.207031 -4.21875 -2.65625 -6.75 C -2.625 -6.851562 -2.582031 -6.9375 -2.53125 -7 C -1.769531 -9.050781 -0.769531 -10.898438 0.46875 -12.546875 C 1.71875 -14.203125 3.296875 -15.582031 5.203125 -16.6875 C 6.472656 -17.425781 7.832031 -17.710938 9.28125 -17.546875 C 9.65625 -17.460938 10.019531 -17.316406 10.375 -17.109375 C 10.800781 -16.910156 10.972656 -16.582031 10.890625 -16.125 C 10.859375 -15.976562 10.789062 -15.851562 10.6875 -15.75 C 10.582031 -15.644531 10.476562 -15.546875 10.375 -15.453125 C 10.3125 -15.378906 10.226562 -15.328125 10.125 -15.296875 C 10.019531 -15.265625 9.910156 -15.25 9.796875 -15.25 C 8.753906 -15.21875 7.859375 -14.910156 7.109375 -14.328125 C 6.359375 -13.753906 5.675781 -13.101562 5.0625 -12.375 C 4.375 -11.601562 3.734375 -10.75 3.140625 -9.8125 C 2.546875 -8.882812 2.0625 -7.773438 1.6875 -6.484375 C 3.070312 -7.285156 4.160156 -8.082031 4.953125 -8.875 C 5.117188 -9.050781 5.289062 -9.207031 5.46875 -9.34375 C 5.613281 -9.488281 5.753906 -9.617188 5.890625 -9.734375 C 6.585938 -10.378906 7.316406 -10.945312 8.078125 -11.4375 C 8.941406 -11.925781 9.800781 -12.171875 10.65625 -12.171875 C 11.507812 -12.171875 12.335938 -11.820312 13.140625 -11.125 C 14.242188 -10.144531 15.316406 -9.757812 16.359375 -9.96875 C 17.398438 -10.1875 18.367188 -10.554688 19.265625 -11.078125 C 20.179688 -11.628906 20.988281 -11.90625 21.6875 -11.90625 Z M 21.6875 -11.90625" transform="translate(350.428 184.458)"/></g></g></g></svg>