<svg xmlns="http://www.w3.org/2000/svg" width="192" viewBox="0 0 192 56.25" height="56.25" version="1.0"><defs><clipPath id="a"><path d="M 2 0 L 57 0 L 57 55.511719 L 2 55.511719 Z M 2 0"/></clipPath></defs><g clip-path="url(#a)"><g><g><g><path d="M 41.328125 -5.9375 C 41.390625 -5.90625 41.4375 -5.847656 41.46875 -5.765625 C 41.5 -5.691406 41.515625 -5.617188 41.515625 -5.546875 C 41.535156 -5.367188 41.4375 -5.25 41.21875 -5.1875 C 41.007812 -5.125 40.738281 -5.082031 40.40625 -5.0625 C 40.070312 -5.039062 39.742188 -5.03125 39.421875 -5.03125 C 39.003906 -5.03125 38.691406 -5.015625 38.484375 -4.984375 C 38.285156 -4.941406 38.164062 -4.847656 38.125 -4.703125 C 38.09375 -4.554688 38.09375 -4.3125 38.125 -3.96875 C 38.144531 -3.78125 38.164062 -3.554688 38.1875 -3.296875 C 38.40625 0.441406 38.859375 4.15625 39.546875 7.84375 C 39.566406 7.90625 39.585938 7.96875 39.609375 8.03125 C 39.640625 8.15625 39.65625 8.289062 39.65625 8.4375 C 39.625 8.675781 39.476562 8.847656 39.21875 8.953125 C 38.957031 9.054688 38.679688 9.050781 38.390625 8.9375 C 38.109375 8.832031 37.925781 8.570312 37.84375 8.15625 C 37.738281 7.59375 37.632812 7.039062 37.53125 6.5 C 37.363281 5.738281 37.21875 4.96875 37.09375 4.1875 C 36.644531 1.570312 36.328125 -1.050781 36.140625 -3.6875 C 36.128906 -4.101562 36.0625 -4.363281 35.9375 -4.46875 C 35.8125 -4.570312 35.535156 -4.59375 35.109375 -4.53125 C 34.109375 -4.445312 33.117188 -4.347656 32.140625 -4.234375 C 29.410156 -3.859375 26.675781 -3.554688 23.9375 -3.328125 C 23.914062 -3.328125 23.898438 -3.328125 23.890625 -3.328125 C 23.859375 -3.328125 23.820312 -3.328125 23.78125 -3.328125 C 22.875 -3.335938 22.265625 -2.878906 21.953125 -1.953125 C 21.015625 0.597656 19.894531 3.054688 18.59375 5.421875 C 17.125 8.109375 15.335938 10.570312 13.234375 12.8125 C 11.773438 14.300781 10.109375 15.519531 8.234375 16.46875 C 6.359375 17.414062 4.429688 18.078125 2.453125 18.453125 C 0.472656 18.835938 -1.414062 18.941406 -3.21875 18.765625 C -5.03125 18.585938 -6.609375 18.117188 -7.953125 17.359375 C -9.296875 16.609375 -10.269531 15.578125 -10.875 14.265625 C -11.476562 12.953125 -11.554688 11.347656 -11.109375 9.453125 C -10.660156 7.722656 -9.84375 6.242188 -8.65625 5.015625 C -7.46875 3.796875 -6.070312 2.769531 -4.46875 1.9375 C -2.863281 1.101562 -1.203125 0.414062 0.515625 -0.125 C 2.242188 -0.675781 3.875 -1.140625 5.40625 -1.515625 C 7.65625 -2.085938 10.046875 -2.601562 12.578125 -3.0625 C 15.117188 -3.53125 17.546875 -3.859375 19.859375 -4.046875 C 20.460938 -4.066406 20.863281 -4.367188 21.0625 -4.953125 C 21.207031 -5.347656 21.363281 -5.738281 21.53125 -6.125 C 21.601562 -6.289062 21.671875 -6.453125 21.734375 -6.609375 C 22.066406 -7.398438 22.394531 -8.203125 22.71875 -9.015625 C 23.84375 -11.867188 25.050781 -14.75 26.34375 -17.65625 C 27.632812 -20.5625 29.085938 -23.347656 30.703125 -26.015625 C 32.328125 -28.691406 34.191406 -31.113281 36.296875 -33.28125 C 36.828125 -33.800781 37.382812 -34.300781 37.96875 -34.78125 C 38.25 -35.007812 38.632812 -35.179688 39.125 -35.296875 C 39.613281 -35.421875 40.03125 -35.398438 40.375 -35.234375 C 40.726562 -35.066406 40.828125 -34.65625 40.671875 -34 C 40.304688 -32.644531 39.992188 -31.269531 39.734375 -29.875 C 39.472656 -28.476562 39.238281 -27.082031 39.03125 -25.6875 C 39.03125 -25.613281 39.019531 -25.539062 39 -25.46875 C 38.519531 -22.300781 38.222656 -19.316406 38.109375 -16.515625 C 38.003906 -13.722656 37.957031 -10.734375 37.96875 -7.546875 C 37.96875 -7.203125 37.984375 -6.859375 38.015625 -6.515625 C 38.046875 -6.265625 38.171875 -6.132812 38.390625 -6.125 C 38.765625 -6.101562 39.132812 -6.101562 39.5 -6.125 C 39.925781 -6.132812 40.359375 -6.132812 40.796875 -6.125 C 40.984375 -6.101562 41.160156 -6.039062 41.328125 -5.9375 Z M 19.875 -1.984375 C 20.019531 -2.359375 20.035156 -2.585938 19.921875 -2.671875 C 19.804688 -2.765625 19.5625 -2.78125 19.1875 -2.71875 C 17.351562 -2.488281 15.523438 -2.222656 13.703125 -1.921875 C 11.878906 -1.628906 10.066406 -1.269531 8.265625 -0.84375 C 8.015625 -0.769531 7.75 -0.707031 7.46875 -0.65625 C 5.976562 -0.300781 4.375 0.117188 2.65625 0.609375 C 0.9375 1.097656 -0.726562 1.722656 -2.34375 2.484375 C -3.96875 3.242188 -5.375 4.191406 -6.5625 5.328125 C -7.75 6.460938 -8.578125 7.835938 -9.046875 9.453125 C -9.523438 11.441406 -9.410156 13.054688 -8.703125 14.296875 C -8.003906 15.546875 -6.894531 16.4375 -5.375 16.96875 C -3.863281 17.507812 -2.15625 17.710938 -0.25 17.578125 C 1.65625 17.441406 3.554688 16.988281 5.453125 16.21875 C 7.347656 15.457031 9.046875 14.398438 10.546875 13.046875 C 12.648438 11.023438 14.429688 8.753906 15.890625 6.234375 C 16.679688 4.929688 17.394531 3.585938 18.03125 2.203125 C 18.675781 0.828125 19.289062 -0.566406 19.875 -1.984375 Z M 37.6875 -29.328125 C 37.6875 -29.367188 37.695312 -29.421875 37.71875 -29.484375 C 37.769531 -29.765625 37.84375 -30.148438 37.9375 -30.640625 C 38.03125 -31.140625 38.09375 -31.59375 38.125 -32 C 38.175781 -32.34375 38.160156 -32.546875 38.078125 -32.609375 C 38.003906 -32.671875 37.820312 -32.53125 37.53125 -32.1875 C 37.363281 -31.988281 37.191406 -31.785156 37.015625 -31.578125 C 36.359375 -30.847656 35.722656 -30.097656 35.109375 -29.328125 C 33.710938 -27.535156 32.410156 -25.515625 31.203125 -23.265625 C 29.992188 -21.015625 28.875 -18.679688 27.84375 -16.265625 C 26.8125 -13.859375 25.835938 -11.507812 24.921875 -9.21875 C 24.492188 -8.164062 24.070312 -7.148438 23.65625 -6.171875 C 23.289062 -5.328125 23.148438 -4.820312 23.234375 -4.65625 C 23.328125 -4.488281 23.722656 -4.46875 24.421875 -4.59375 C 24.523438 -4.59375 24.648438 -4.601562 24.796875 -4.625 C 26.910156 -4.820312 29.019531 -5.050781 31.125 -5.3125 C 32.039062 -5.414062 32.953125 -5.519531 33.859375 -5.625 C 34.046875 -5.65625 34.226562 -5.679688 34.40625 -5.703125 C 34.71875 -5.734375 35.035156 -5.765625 35.359375 -5.796875 C 35.566406 -5.816406 35.71875 -5.878906 35.8125 -5.984375 C 35.90625 -6.085938 35.953125 -6.265625 35.953125 -6.515625 C 35.953125 -6.660156 35.953125 -6.816406 35.953125 -6.984375 C 35.953125 -7.078125 35.953125 -7.164062 35.953125 -7.25 C 35.929688 -11.144531 36.019531 -14.804688 36.21875 -18.234375 C 36.425781 -21.660156 36.914062 -25.359375 37.6875 -29.328125 Z M 37.6875 -29.328125" transform="translate(14.775 35.965)"/></g></g></g></g><g><g><g><path d="M 10.765625 -5.90625 C 10.847656 -5.894531 10.90625 -5.867188 10.9375 -5.828125 C 10.96875 -5.796875 11.003906 -5.726562 11.046875 -5.625 C 11.078125 -5.519531 11.039062 -5.394531 10.9375 -5.25 C 10.832031 -5.113281 10.738281 -5.003906 10.65625 -4.921875 C 10.007812 -4.316406 9.257812 -3.957031 8.40625 -3.84375 C 7.90625 -3.769531 7.410156 -3.75 6.921875 -3.78125 C 6.429688 -3.820312 5.945312 -3.941406 5.46875 -4.140625 C 5.125 -4.316406 4.800781 -4.269531 4.5 -4 C 3.882812 -3.4375 3.238281 -2.894531 2.5625 -2.375 C 2.21875 -2.113281 1.851562 -1.894531 1.46875 -1.71875 C 1.09375 -1.550781 0.679688 -1.457031 0.234375 -1.4375 C -1.078125 -1.457031 -1.59375 -2.09375 -1.3125 -3.34375 C -1.300781 -3.40625 -1.28125 -3.453125 -1.25 -3.484375 C -0.875 -4.492188 -0.378906 -5.40625 0.234375 -6.21875 C 0.847656 -7.039062 1.628906 -7.726562 2.578125 -8.28125 C 3.210938 -8.644531 3.890625 -8.785156 4.609375 -8.703125 C 4.796875 -8.660156 4.972656 -8.59375 5.140625 -8.5 C 5.359375 -8.394531 5.445312 -8.226562 5.40625 -8 C 5.382812 -7.925781 5.347656 -7.863281 5.296875 -7.8125 C 5.253906 -7.769531 5.203125 -7.722656 5.140625 -7.671875 C 5.109375 -7.628906 5.066406 -7.597656 5.015625 -7.578125 C 4.972656 -7.566406 4.921875 -7.5625 4.859375 -7.5625 C 4.347656 -7.550781 3.90625 -7.398438 3.53125 -7.109375 C 3.15625 -6.828125 2.816406 -6.503906 2.515625 -6.140625 C 2.171875 -5.753906 1.847656 -5.332031 1.546875 -4.875 C 1.253906 -4.414062 1.015625 -3.863281 0.828125 -3.21875 C 1.523438 -3.613281 2.066406 -4.007812 2.453125 -4.40625 C 2.535156 -4.488281 2.625 -4.566406 2.71875 -4.640625 C 2.78125 -4.710938 2.847656 -4.773438 2.921875 -4.828125 C 3.265625 -5.148438 3.625 -5.429688 4 -5.671875 C 4.4375 -5.921875 4.863281 -6.046875 5.28125 -6.046875 C 5.707031 -6.046875 6.117188 -5.867188 6.515625 -5.515625 C 7.066406 -5.035156 7.597656 -4.847656 8.109375 -4.953125 C 8.628906 -5.054688 9.113281 -5.238281 9.5625 -5.5 C 10.019531 -5.769531 10.421875 -5.90625 10.765625 -5.90625 Z M 10.765625 -5.90625" transform="translate(57.234 35.965)"/></g></g></g><g><g><g><path d="M 10.4375 -5.546875 C 10.726562 -5.835938 10.984375 -5.953125 11.203125 -5.890625 C 11.429688 -5.828125 11.570312 -5.660156 11.625 -5.390625 C 11.6875 -5.128906 11.609375 -4.835938 11.390625 -4.515625 C 10.960938 -3.878906 10.359375 -3.191406 9.578125 -2.453125 C 8.796875 -1.722656 7.953125 -1.085938 7.046875 -0.546875 C 6.140625 -0.00390625 5.28125 0.289062 4.46875 0.34375 C 2.832031 0.425781 2.066406 -0.359375 2.171875 -2.015625 C 2.191406 -2.234375 2.234375 -2.523438 2.296875 -2.890625 C 2.367188 -3.253906 2.425781 -3.601562 2.46875 -3.9375 C 2.507812 -4.269531 2.488281 -4.5 2.40625 -4.625 C 2.300781 -4.71875 2.175781 -4.765625 2.03125 -4.765625 C 1.894531 -4.765625 1.75 -4.75 1.59375 -4.71875 C 1.425781 -4.6875 1.265625 -4.679688 1.109375 -4.703125 C 0.316406 -4.785156 -0.09375 -5.195312 -0.125 -5.9375 C -0.144531 -6.945312 0.0390625 -7.921875 0.4375 -8.859375 C 0.5625 -9.148438 0.796875 -9.34375 1.140625 -9.4375 C 1.484375 -9.53125 1.800781 -9.488281 2.09375 -9.3125 C 2.28125 -9.195312 2.363281 -9.035156 2.34375 -8.828125 C 2.3125 -8.546875 2.265625 -8.269531 2.203125 -8 C 2.171875 -7.882812 2.140625 -7.765625 2.109375 -7.640625 C 1.960938 -6.921875 1.960938 -6.546875 2.109375 -6.515625 C 2.265625 -6.484375 2.601562 -6.675781 3.125 -7.09375 C 3.507812 -7.363281 3.929688 -7.476562 4.390625 -7.4375 C 5.015625 -7.382812 5.265625 -7.039062 5.140625 -6.40625 C 5.046875 -5.96875 4.941406 -5.53125 4.828125 -5.09375 C 4.585938 -4.175781 4.40625 -3.25 4.28125 -2.3125 C 4.238281 -1.675781 4.351562 -1.304688 4.625 -1.203125 C 4.90625 -1.097656 5.273438 -1.160156 5.734375 -1.390625 C 6.191406 -1.628906 6.671875 -1.945312 7.171875 -2.34375 C 7.679688 -2.738281 8.128906 -3.125 8.515625 -3.5 C 8.898438 -3.882812 9.164062 -4.160156 9.3125 -4.328125 C 9.375 -4.421875 9.476562 -4.539062 9.625 -4.6875 C 9.769531 -4.84375 9.921875 -5 10.078125 -5.15625 C 10.253906 -5.332031 10.375 -5.460938 10.4375 -5.546875 Z M 10.4375 -5.546875" transform="translate(67.188 35.965)"/></g></g></g><g><g><g><path d="M 10.765625 -5.90625 C 10.847656 -5.894531 10.90625 -5.867188 10.9375 -5.828125 C 10.96875 -5.796875 11.003906 -5.726562 11.046875 -5.625 C 11.078125 -5.519531 11.039062 -5.394531 10.9375 -5.25 C 10.832031 -5.113281 10.738281 -5.003906 10.65625 -4.921875 C 10.007812 -4.316406 9.257812 -3.957031 8.40625 -3.84375 C 7.90625 -3.769531 7.410156 -3.75 6.921875 -3.78125 C 6.429688 -3.820312 5.945312 -3.941406 5.46875 -4.140625 C 5.125 -4.316406 4.800781 -4.269531 4.5 -4 C 3.882812 -3.4375 3.238281 -2.894531 2.5625 -2.375 C 2.21875 -2.113281 1.851562 -1.894531 1.46875 -1.71875 C 1.09375 -1.550781 0.679688 -1.457031 0.234375 -1.4375 C -1.078125 -1.457031 -1.59375 -2.09375 -1.3125 -3.34375 C -1.300781 -3.40625 -1.28125 -3.453125 -1.25 -3.484375 C -0.875 -4.492188 -0.378906 -5.40625 0.234375 -6.21875 C 0.847656 -7.039062 1.628906 -7.726562 2.578125 -8.28125 C 3.210938 -8.644531 3.890625 -8.785156 4.609375 -8.703125 C 4.796875 -8.660156 4.972656 -8.59375 5.140625 -8.5 C 5.359375 -8.394531 5.445312 -8.226562 5.40625 -8 C 5.382812 -7.925781 5.347656 -7.863281 5.296875 -7.8125 C 5.253906 -7.769531 5.203125 -7.722656 5.140625 -7.671875 C 5.109375 -7.628906 5.066406 -7.597656 5.015625 -7.578125 C 4.972656 -7.566406 4.921875 -7.5625 4.859375 -7.5625 C 4.347656 -7.550781 3.90625 -7.398438 3.53125 -7.109375 C 3.15625 -6.828125 2.816406 -6.503906 2.515625 -6.140625 C 2.171875 -5.753906 1.847656 -5.332031 1.546875 -4.875 C 1.253906 -4.414062 1.015625 -3.863281 0.828125 -3.21875 C 1.523438 -3.613281 2.066406 -4.007812 2.453125 -4.40625 C 2.535156 -4.488281 2.625 -4.566406 2.71875 -4.640625 C 2.78125 -4.710938 2.847656 -4.773438 2.921875 -4.828125 C 3.265625 -5.148438 3.625 -5.429688 4 -5.671875 C 4.4375 -5.921875 4.863281 -6.046875 5.28125 -6.046875 C 5.707031 -6.046875 6.117188 -5.867188 6.515625 -5.515625 C 7.066406 -5.035156 7.597656 -4.847656 8.109375 -4.953125 C 8.628906 -5.054688 9.113281 -5.238281 9.5625 -5.5 C 10.019531 -5.769531 10.421875 -5.90625 10.765625 -5.90625 Z M 10.765625 -5.90625" transform="translate(77.33 35.965)"/></g></g></g><g><g><g><path d="M 6.234375 -7.953125 C 6.367188 -7.910156 6.472656 -7.847656 6.546875 -7.765625 C 6.628906 -7.679688 6.660156 -7.5625 6.640625 -7.40625 C 6.578125 -7.0625 6.488281 -6.726562 6.375 -6.40625 C 6.175781 -5.71875 5.914062 -5.050781 5.59375 -4.40625 C 5.28125 -3.757812 4.875 -3.15625 4.375 -2.59375 C 4.21875 -2.425781 4.054688 -2.269531 3.890625 -2.125 C 3.722656 -1.976562 3.53125 -1.867188 3.3125 -1.796875 C 2.789062 -1.640625 2.296875 -1.617188 1.828125 -1.734375 C 1.367188 -1.859375 0.988281 -2.234375 0.6875 -2.859375 C 0.15625 -4.046875 -0.164062 -5.296875 -0.28125 -6.609375 C -0.320312 -7.078125 -0.171875 -7.351562 0.171875 -7.4375 C 0.472656 -7.519531 0.75 -7.523438 1 -7.453125 C 1.25 -7.390625 1.414062 -7.253906 1.5 -7.046875 C 1.632812 -6.691406 1.738281 -6.320312 1.8125 -5.9375 C 1.84375 -5.832031 1.867188 -5.726562 1.890625 -5.625 C 1.921875 -5.457031 1.953125 -5.296875 1.984375 -5.140625 C 2.097656 -4.691406 2.207031 -4.316406 2.3125 -4.015625 C 2.425781 -3.722656 2.585938 -3.609375 2.796875 -3.671875 C 3.003906 -3.734375 3.28125 -4.066406 3.625 -4.671875 C 4.125 -5.523438 4.546875 -6.425781 4.890625 -7.375 C 5.148438 -7.96875 5.597656 -8.160156 6.234375 -7.953125 Z M 6.234375 -7.953125" transform="translate(87.283 35.965)"/></g></g></g><g><g><g><path d="M 32.78125 -5.890625 C 32.894531 -5.734375 32.890625 -5.523438 32.765625 -5.265625 C 32.648438 -5.003906 32.175781 -4.6875 31.34375 -4.3125 C 30.507812 -3.945312 29.554688 -3.617188 28.484375 -3.328125 C 28.296875 -3.296875 28.097656 -3.257812 27.890625 -3.21875 C 27.492188 -3.175781 27.28125 -2.953125 27.25 -2.546875 C 27.144531 -1.703125 27.003906 -0.867188 26.828125 -0.046875 C 26.191406 2.898438 24.890625 5.519531 22.921875 7.8125 C 20.753906 10.3125 18.191406 12.289062 15.234375 13.75 C 12.285156 15.21875 9.160156 16.082031 5.859375 16.34375 C 2.566406 16.613281 -0.648438 16.234375 -3.796875 15.203125 C -5.390625 14.679688 -6.851562 13.941406 -8.1875 12.984375 C -8.945312 12.453125 -9.59375 11.828125 -10.125 11.109375 C -11.1875 9.597656 -11.257812 8.046875 -10.34375 6.453125 C -9.75 5.453125 -8.890625 4.570312 -7.765625 3.8125 C -6.648438 3.050781 -5.394531 2.394531 -4 1.84375 C -2.613281 1.289062 -1.207031 0.820312 0.21875 0.4375 C 1.65625 0.0507812 2.988281 -0.289062 4.21875 -0.59375 C 4.59375 -0.6875 4.960938 -0.78125 5.328125 -0.875 C 5.703125 -0.96875 5.898438 -1.21875 5.921875 -1.625 C 5.921875 -1.707031 5.925781 -1.789062 5.9375 -1.875 C 5.9375 -2 5.9375 -2.109375 5.9375 -2.203125 C 5.957031 -2.535156 5.972656 -2.867188 5.984375 -3.203125 C 6.117188 -6.398438 6.226562 -9.601562 6.3125 -12.8125 C 6.394531 -16.03125 6.394531 -19.242188 6.3125 -22.453125 C 6.289062 -23.066406 6.25 -23.6875 6.1875 -24.3125 C 6.144531 -24.632812 6.109375 -24.960938 6.078125 -25.296875 C 6.015625 -25.828125 6.1875 -26.144531 6.59375 -26.25 C 7.28125 -26.40625 7.71875 -26.191406 7.90625 -25.609375 C 8.03125 -25.128906 8.109375 -24.640625 8.140625 -24.140625 C 8.328125 -22.097656 8.414062 -20.054688 8.40625 -18.015625 C 8.40625 -17.835938 8.410156 -17.664062 8.421875 -17.5 C 8.421875 -17.425781 8.421875 -17.363281 8.421875 -17.3125 C 8.523438 -17.238281 8.613281 -17.210938 8.6875 -17.234375 C 8.769531 -17.253906 8.835938 -17.285156 8.890625 -17.328125 C 10.085938 -18.515625 11.234375 -19.734375 12.328125 -20.984375 C 13.429688 -22.234375 14.457031 -23.566406 15.40625 -24.984375 C 16.195312 -26.140625 16.804688 -27.390625 17.234375 -28.734375 C 17.390625 -29.316406 17.46875 -29.910156 17.46875 -30.515625 C 17.4375 -31.617188 17.054688 -32.40625 16.328125 -32.875 C 15.597656 -33.351562 14.664062 -33.601562 13.53125 -33.625 C 12.40625 -33.65625 11.222656 -33.539062 9.984375 -33.28125 C 8.742188 -33.019531 7.59375 -32.703125 6.53125 -32.328125 C 5.476562 -31.960938 4.671875 -31.628906 4.109375 -31.328125 C 3.378906 -30.941406 2.726562 -30.472656 2.15625 -29.921875 C 2.125 -29.910156 2.101562 -29.890625 2.09375 -29.859375 C 1.90625 -29.710938 1.757812 -29.539062 1.65625 -29.34375 C 1.550781 -29.15625 1.566406 -28.925781 1.703125 -28.65625 C 1.742188 -28.550781 1.722656 -28.457031 1.640625 -28.375 C 1.566406 -28.300781 1.484375 -28.25 1.390625 -28.21875 C 1.148438 -28.132812 0.898438 -28.09375 0.640625 -28.09375 C 0.210938 -28.050781 -0.128906 -28.210938 -0.390625 -28.578125 C -0.503906 -28.773438 -0.53125 -28.960938 -0.46875 -29.140625 C -0.414062 -29.316406 -0.332031 -29.484375 -0.21875 -29.640625 C -0.21875 -29.660156 -0.203125 -29.671875 -0.171875 -29.671875 C 0.0859375 -30.085938 0.390625 -30.445312 0.734375 -30.75 C 1.085938 -31.0625 1.472656 -31.347656 1.890625 -31.609375 C 3.703125 -32.796875 5.738281 -33.644531 8 -34.15625 C 10.257812 -34.675781 12.46875 -34.851562 14.625 -34.6875 C 15.539062 -34.59375 16.40625 -34.347656 17.21875 -33.953125 C 18.925781 -33.078125 19.664062 -31.679688 19.4375 -29.765625 C 19.257812 -28.660156 18.925781 -27.617188 18.4375 -26.640625 C 17.570312 -24.941406 16.523438 -23.359375 15.296875 -21.890625 C 13.765625 -20.023438 12.144531 -18.25 10.4375 -16.5625 C 9.820312 -15.9375 9.53125 -15.5625 9.5625 -15.4375 C 9.59375 -15.320312 9.910156 -15.300781 10.515625 -15.375 C 10.640625 -15.375 10.78125 -15.378906 10.9375 -15.390625 C 12.28125 -15.472656 13.65625 -15.515625 15.0625 -15.515625 C 16.476562 -15.515625 17.847656 -15.378906 19.171875 -15.109375 C 20.503906 -14.835938 21.726562 -14.34375 22.84375 -13.625 C 23.957031 -12.90625 24.890625 -11.867188 25.640625 -10.515625 C 26.453125 -8.992188 26.960938 -7.378906 27.171875 -5.671875 C 27.179688 -5.566406 27.1875 -5.46875 27.1875 -5.375 C 27.238281 -4.882812 27.546875 -4.65625 28.109375 -4.6875 C 28.671875 -4.726562 29.332031 -4.867188 30.09375 -5.109375 C 30.851562 -5.347656 31.460938 -5.578125 31.921875 -5.796875 C 32.378906 -6.015625 32.664062 -6.046875 32.78125 -5.890625 Z M 25.125 -2.390625 C 25.144531 -2.515625 25.117188 -2.609375 25.046875 -2.671875 C 24.972656 -2.742188 24.878906 -2.78125 24.765625 -2.78125 C 24.109375 -2.707031 23.453125 -2.640625 22.796875 -2.578125 C 22.710938 -2.554688 22.625 -2.539062 22.53125 -2.53125 C 19.394531 -2.125 16.335938 -1.628906 13.359375 -1.046875 C 11.671875 -0.742188 9.957031 -0.453125 8.21875 -0.171875 C 7.738281 -0.0859375 7.515625 0.1875 7.546875 0.65625 C 7.523438 0.863281 7.5 1.0625 7.46875 1.25 C 7.394531 1.507812 7.222656 1.671875 6.953125 1.734375 C 6.660156 1.835938 6.367188 1.832031 6.078125 1.71875 C 5.929688 1.644531 5.84375 1.554688 5.8125 1.453125 C 5.78125 1.347656 5.753906 1.234375 5.734375 1.109375 C 5.734375 1.066406 5.722656 1.019531 5.703125 0.96875 C 5.671875 0.757812 5.613281 0.625 5.53125 0.5625 C 5.457031 0.5 5.328125 0.488281 5.140625 0.53125 C 4.484375 0.632812 3.601562 0.828125 2.5 1.109375 C 1.40625 1.398438 0.21875 1.765625 -1.0625 2.203125 C -2.351562 2.648438 -3.585938 3.175781 -4.765625 3.78125 C -5.953125 4.382812 -6.929688 5.0625 -7.703125 5.8125 C -8.484375 6.5625 -8.921875 7.367188 -9.015625 8.234375 C -9.117188 9.109375 -8.742188 10.046875 -7.890625 11.046875 C -7.140625 11.878906 -6.269531 12.546875 -5.28125 13.046875 C -2.375 14.503906 0.644531 15.226562 3.78125 15.21875 C 6.914062 15.207031 9.929688 14.566406 12.828125 13.296875 C 15.734375 12.023438 18.28125 10.222656 20.46875 7.890625 C 22.644531 5.597656 24.085938 2.898438 24.796875 -0.203125 C 24.921875 -0.847656 25.019531 -1.515625 25.09375 -2.203125 C 25.09375 -2.273438 25.101562 -2.335938 25.125 -2.390625 Z M 24.453125 -4.015625 C 24.765625 -4.054688 24.96875 -4.128906 25.0625 -4.234375 C 25.164062 -4.347656 25.203125 -4.5625 25.171875 -4.875 C 25.078125 -6.320312 24.75 -7.726562 24.1875 -9.09375 C 23.539062 -10.625 22.675781 -11.78125 21.59375 -12.5625 C 20.519531 -13.351562 19.304688 -13.867188 17.953125 -14.109375 C 16.609375 -14.359375 15.207031 -14.453125 13.75 -14.390625 C 12.300781 -14.335938 10.878906 -14.234375 9.484375 -14.078125 C 9.273438 -14.054688 9.070312 -14.03125 8.875 -14 C 8.570312 -13.96875 8.378906 -13.851562 8.296875 -13.65625 C 8.222656 -13.457031 8.195312 -13.226562 8.21875 -12.96875 C 8.21875 -12.925781 8.21875 -12.898438 8.21875 -12.890625 C 8.164062 -9.992188 8.019531 -6.953125 7.78125 -3.765625 C 7.78125 -3.734375 7.78125 -3.679688 7.78125 -3.609375 C 7.78125 -3.390625 7.78125 -3.09375 7.78125 -2.71875 C 7.726562 -2.070312 7.769531 -1.691406 7.90625 -1.578125 C 8.050781 -1.460938 8.441406 -1.484375 9.078125 -1.640625 C 9.773438 -1.765625 10.46875 -1.894531 11.15625 -2.03125 C 13.351562 -2.445312 15.5625 -2.804688 17.78125 -3.109375 C 20 -3.410156 22.222656 -3.710938 24.453125 -4.015625 Z M 24.453125 -4.015625" transform="translate(103.618 35.965)"/></g></g></g><g><g><g><path d="M 10.765625 -5.90625 C 10.847656 -5.894531 10.90625 -5.867188 10.9375 -5.828125 C 10.96875 -5.796875 11.003906 -5.726562 11.046875 -5.625 C 11.078125 -5.519531 11.039062 -5.394531 10.9375 -5.25 C 10.832031 -5.113281 10.738281 -5.003906 10.65625 -4.921875 C 10.007812 -4.316406 9.257812 -3.957031 8.40625 -3.84375 C 7.90625 -3.769531 7.410156 -3.75 6.921875 -3.78125 C 6.429688 -3.820312 5.945312 -3.941406 5.46875 -4.140625 C 5.125 -4.316406 4.800781 -4.269531 4.5 -4 C 3.882812 -3.4375 3.238281 -2.894531 2.5625 -2.375 C 2.21875 -2.113281 1.851562 -1.894531 1.46875 -1.71875 C 1.09375 -1.550781 0.679688 -1.457031 0.234375 -1.4375 C -1.078125 -1.457031 -1.59375 -2.09375 -1.3125 -3.34375 C -1.300781 -3.40625 -1.28125 -3.453125 -1.25 -3.484375 C -0.875 -4.492188 -0.378906 -5.40625 0.234375 -6.21875 C 0.847656 -7.039062 1.628906 -7.726562 2.578125 -8.28125 C 3.210938 -8.644531 3.890625 -8.785156 4.609375 -8.703125 C 4.796875 -8.660156 4.972656 -8.59375 5.140625 -8.5 C 5.359375 -8.394531 5.445312 -8.226562 5.40625 -8 C 5.382812 -7.925781 5.347656 -7.863281 5.296875 -7.8125 C 5.253906 -7.769531 5.203125 -7.722656 5.140625 -7.671875 C 5.109375 -7.628906 5.066406 -7.597656 5.015625 -7.578125 C 4.972656 -7.566406 4.921875 -7.5625 4.859375 -7.5625 C 4.347656 -7.550781 3.90625 -7.398438 3.53125 -7.109375 C 3.15625 -6.828125 2.816406 -6.503906 2.515625 -6.140625 C 2.171875 -5.753906 1.847656 -5.332031 1.546875 -4.875 C 1.253906 -4.414062 1.015625 -3.863281 0.828125 -3.21875 C 1.523438 -3.613281 2.066406 -4.007812 2.453125 -4.40625 C 2.535156 -4.488281 2.625 -4.566406 2.71875 -4.640625 C 2.78125 -4.710938 2.847656 -4.773438 2.921875 -4.828125 C 3.265625 -5.148438 3.625 -5.429688 4 -5.671875 C 4.4375 -5.921875 4.863281 -6.046875 5.28125 -6.046875 C 5.707031 -6.046875 6.117188 -5.867188 6.515625 -5.515625 C 7.066406 -5.035156 7.597656 -4.847656 8.109375 -4.953125 C 8.628906 -5.054688 9.113281 -5.238281 9.5625 -5.5 C 10.019531 -5.769531 10.421875 -5.90625 10.765625 -5.90625 Z M 10.765625 -5.90625" transform="translate(135.7 35.965)"/></g></g></g><g><g><g><path d="M 16.28125 -5.9375 C 16.4375 -5.945312 16.5625 -5.921875 16.65625 -5.859375 C 16.75 -5.804688 16.796875 -5.691406 16.796875 -5.515625 C 16.828125 -5.429688 16.796875 -5.304688 16.703125 -5.140625 C 16.609375 -4.984375 16.5 -4.828125 16.375 -4.671875 C 16.257812 -4.515625 16.171875 -4.398438 16.109375 -4.328125 C 15.535156 -3.734375 14.90625 -3.335938 14.21875 -3.140625 C 13.53125 -2.953125 12.789062 -2.925781 12 -3.0625 C 11.613281 -3.132812 11.28125 -3.289062 11 -3.53125 C 10.71875 -3.769531 10.46875 -4.0625 10.25 -4.40625 C 10.238281 -4.425781 10.222656 -4.445312 10.203125 -4.46875 C 9.960938 -4.851562 9.695312 -5.238281 9.40625 -5.625 C 9.269531 -5.8125 9.132812 -5.90625 9 -5.90625 C 8.875 -5.90625 8.722656 -5.820312 8.546875 -5.65625 C 8.035156 -5.164062 7.59375 -4.617188 7.21875 -4.015625 C 6.851562 -3.484375 6.332031 -3.242188 5.65625 -3.296875 C 5.15625 -3.328125 4.828125 -3.585938 4.671875 -4.078125 C 4.640625 -4.191406 4.625 -4.3125 4.625 -4.4375 C 4.59375 -5.0625 4.457031 -5.242188 4.21875 -4.984375 C 3.988281 -4.722656 3.757812 -4.367188 3.53125 -3.921875 C 3.445312 -3.753906 3.347656 -3.582031 3.234375 -3.40625 C 3.117188 -3.195312 2.992188 -2.988281 2.859375 -2.78125 C 2.742188 -2.550781 2.617188 -2.328125 2.484375 -2.109375 C 2.234375 -1.765625 1.894531 -1.578125 1.46875 -1.546875 C 0.675781 -1.472656 0.226562 -1.816406 0.125 -2.578125 C 0.09375 -3.234375 0.0664062 -3.882812 0.046875 -4.53125 C 0.0351562 -4.832031 0.0195312 -5.132812 0 -5.4375 C -0.0195312 -5.695312 -0.03125 -5.96875 -0.03125 -6.25 C -0.0625 -6.726562 -0.0859375 -7.203125 -0.109375 -7.671875 C -0.117188 -8.285156 0.164062 -8.617188 0.75 -8.671875 C 1.382812 -8.722656 1.753906 -8.460938 1.859375 -7.890625 C 1.929688 -7.378906 1.984375 -6.863281 2.015625 -6.34375 C 2.015625 -6 2.050781 -5.789062 2.125 -5.71875 C 2.207031 -5.644531 2.28125 -5.628906 2.34375 -5.671875 C 2.414062 -5.710938 2.488281 -5.773438 2.5625 -5.859375 C 2.5625 -5.859375 2.5625 -5.867188 2.5625 -5.890625 C 2.632812 -5.972656 2.703125 -6.054688 2.765625 -6.140625 C 2.929688 -6.390625 3.113281 -6.613281 3.3125 -6.8125 C 3.832031 -7.257812 4.4375 -7.445312 5.125 -7.375 C 5.726562 -7.332031 6.160156 -7.046875 6.421875 -6.515625 C 6.503906 -6.316406 6.640625 -6.285156 6.828125 -6.421875 C 7.015625 -6.566406 7.265625 -6.734375 7.578125 -6.921875 C 7.898438 -7.109375 8.253906 -7.238281 8.640625 -7.3125 C 9.546875 -7.5 10.320312 -7.265625 10.96875 -6.609375 C 11.25 -6.285156 11.53125 -5.929688 11.8125 -5.546875 C 11.832031 -5.515625 11.859375 -5.476562 11.890625 -5.4375 C 11.960938 -5.332031 12.035156 -5.222656 12.109375 -5.109375 C 12.148438 -5.003906 12.207031 -4.898438 12.28125 -4.796875 C 12.570312 -4.421875 12.875 -4.226562 13.1875 -4.21875 C 13.507812 -4.207031 13.828125 -4.304688 14.140625 -4.515625 C 14.460938 -4.722656 14.773438 -4.957031 15.078125 -5.21875 C 15.304688 -5.414062 15.519531 -5.582031 15.71875 -5.71875 C 15.925781 -5.863281 16.113281 -5.9375 16.28125 -5.9375 Z M 16.28125 -5.9375" transform="translate(145.654 35.965)"/></g></g></g><g><g><g><path d="M 14.21875 -5.859375 C 14.570312 -5.660156 14.578125 -5.394531 14.234375 -5.0625 C 13.890625 -4.738281 13.375 -4.382812 12.6875 -4 C 12 -3.625 11.304688 -3.28125 10.609375 -2.96875 C 9.910156 -2.65625 9.398438 -2.429688 9.078125 -2.296875 C 8.953125 -2.234375 8.882812 -2.195312 8.875 -2.1875 C 7.957031 -1.738281 7.078125 -1.265625 6.234375 -0.765625 C 5.378906 -0.265625 4.472656 0.222656 3.515625 0.703125 C 3.066406 0.941406 2.582031 0.976562 2.0625 0.8125 C 1.945312 0.757812 1.867188 0.660156 1.828125 0.515625 C 1.785156 0.378906 1.804688 0.269531 1.890625 0.1875 C 1.910156 0.175781 1.9375 0.15625 1.96875 0.125 C 2.3125 -0.175781 2.675781 -0.4375 3.0625 -0.65625 C 3.550781 -0.96875 3.9375 -1.40625 4.21875 -1.96875 C 4.507812 -2.53125 4.734375 -3.101562 4.890625 -3.6875 C 5.003906 -4.164062 5.082031 -4.648438 5.125 -5.140625 C 5.15625 -5.335938 5.144531 -5.535156 5.09375 -5.734375 C 5.039062 -5.941406 4.921875 -6.101562 4.734375 -6.21875 C 4.472656 -6.351562 4.191406 -6.289062 3.890625 -6.03125 C 3.585938 -5.78125 3.296875 -5.425781 3.015625 -4.96875 C 2.742188 -4.507812 2.515625 -4.054688 2.328125 -3.609375 C 2.140625 -3.160156 2.019531 -2.816406 1.96875 -2.578125 C 1.863281 -2.140625 1.585938 -1.90625 1.140625 -1.875 C 0.585938 -1.8125 0.265625 -2.050781 0.171875 -2.59375 C 0.0234375 -3.851562 -0.0351562 -5.726562 -0.015625 -8.21875 C -0.00390625 -10.707031 0.101562 -13.367188 0.3125 -16.203125 C 0.519531 -19.046875 0.835938 -21.609375 1.265625 -23.890625 C 1.703125 -26.171875 2.242188 -27.742188 2.890625 -28.609375 C 3.316406 -29.128906 3.878906 -29.375 4.578125 -29.34375 C 5.429688 -29.332031 6.015625 -28.921875 6.328125 -28.109375 C 6.671875 -27.179688 6.832031 -26.070312 6.8125 -24.78125 C 6.800781 -23.5 6.6875 -22.222656 6.46875 -20.953125 C 6.257812 -19.679688 6.035156 -18.59375 5.796875 -17.6875 C 5.359375 -16.070312 4.867188 -14.476562 4.328125 -12.90625 C 3.785156 -11.34375 3.144531 -9.820312 2.40625 -8.34375 C 2.363281 -8.289062 2.335938 -8.238281 2.328125 -8.1875 C 2.222656 -8.03125 2.144531 -7.851562 2.09375 -7.65625 C 2.039062 -7.457031 2.082031 -7.21875 2.21875 -6.9375 C 2.320312 -7 2.414062 -7.050781 2.5 -7.09375 C 2.695312 -7.175781 2.882812 -7.265625 3.0625 -7.359375 C 3.601562 -7.585938 4.1875 -7.691406 4.8125 -7.671875 C 6.394531 -7.523438 7.195312 -6.664062 7.21875 -5.09375 C 7.195312 -4.707031 7.148438 -4.328125 7.078125 -3.953125 C 6.992188 -3.429688 7.085938 -3.160156 7.359375 -3.140625 C 7.640625 -3.117188 8.046875 -3.25 8.578125 -3.53125 C 8.617188 -3.550781 8.671875 -3.578125 8.734375 -3.609375 C 9.128906 -3.796875 9.722656 -4.078125 10.515625 -4.453125 C 11.316406 -4.835938 12.082031 -5.175781 12.8125 -5.46875 C 13.539062 -5.757812 14.007812 -5.890625 14.21875 -5.859375 Z M 2.5625 -18.1875 C 2.519531 -17.757812 2.46875 -17.171875 2.40625 -16.421875 C 2.332031 -15.535156 2.253906 -14.613281 2.171875 -13.65625 C 2.085938 -12.695312 2.023438 -11.941406 1.984375 -11.390625 C 2.242188 -11.734375 2.519531 -12.445312 2.8125 -13.53125 C 3.101562 -14.625 3.378906 -15.820312 3.640625 -17.125 C 3.910156 -18.4375 4.132812 -19.585938 4.3125 -20.578125 C 4.488281 -21.566406 4.585938 -22.140625 4.609375 -22.296875 C 4.617188 -22.429688 4.644531 -22.75 4.6875 -23.25 C 4.738281 -23.75 4.769531 -24.285156 4.78125 -24.859375 C 4.800781 -25.441406 4.78125 -25.941406 4.71875 -26.359375 C 4.65625 -26.785156 4.53125 -27.003906 4.34375 -27.015625 C 4.289062 -27.003906 4.238281 -26.96875 4.1875 -26.90625 C 4.132812 -26.851562 4.085938 -26.789062 4.046875 -26.71875 C 3.953125 -26.445312 3.867188 -26.160156 3.796875 -25.859375 C 3.773438 -25.828125 3.765625 -25.785156 3.765625 -25.734375 C 3.421875 -24.503906 3.160156 -23.257812 2.984375 -22 C 2.804688 -20.738281 2.664062 -19.46875 2.5625 -18.1875 Z M 2.5625 -18.1875" transform="translate(161.167 35.965)"/></g></g></g><g><g><g><path d="M 10.765625 -5.90625 C 10.847656 -5.894531 10.90625 -5.867188 10.9375 -5.828125 C 10.96875 -5.796875 11.003906 -5.726562 11.046875 -5.625 C 11.078125 -5.519531 11.039062 -5.394531 10.9375 -5.25 C 10.832031 -5.113281 10.738281 -5.003906 10.65625 -4.921875 C 10.007812 -4.316406 9.257812 -3.957031 8.40625 -3.84375 C 7.90625 -3.769531 7.410156 -3.75 6.921875 -3.78125 C 6.429688 -3.820312 5.945312 -3.941406 5.46875 -4.140625 C 5.125 -4.316406 4.800781 -4.269531 4.5 -4 C 3.882812 -3.4375 3.238281 -2.894531 2.5625 -2.375 C 2.21875 -2.113281 1.851562 -1.894531 1.46875 -1.71875 C 1.09375 -1.550781 0.679688 -1.457031 0.234375 -1.4375 C -1.078125 -1.457031 -1.59375 -2.09375 -1.3125 -3.34375 C -1.300781 -3.40625 -1.28125 -3.453125 -1.25 -3.484375 C -0.875 -4.492188 -0.378906 -5.40625 0.234375 -6.21875 C 0.847656 -7.039062 1.628906 -7.726562 2.578125 -8.28125 C 3.210938 -8.644531 3.890625 -8.785156 4.609375 -8.703125 C 4.796875 -8.660156 4.972656 -8.59375 5.140625 -8.5 C 5.359375 -8.394531 5.445312 -8.226562 5.40625 -8 C 5.382812 -7.925781 5.347656 -7.863281 5.296875 -7.8125 C 5.253906 -7.769531 5.203125 -7.722656 5.140625 -7.671875 C 5.109375 -7.628906 5.066406 -7.597656 5.015625 -7.578125 C 4.972656 -7.566406 4.921875 -7.5625 4.859375 -7.5625 C 4.347656 -7.550781 3.90625 -7.398438 3.53125 -7.109375 C 3.15625 -6.828125 2.816406 -6.503906 2.515625 -6.140625 C 2.171875 -5.753906 1.847656 -5.332031 1.546875 -4.875 C 1.253906 -4.414062 1.015625 -3.863281 0.828125 -3.21875 C 1.523438 -3.613281 2.066406 -4.007812 2.453125 -4.40625 C 2.535156 -4.488281 2.625 -4.566406 2.71875 -4.640625 C 2.78125 -4.710938 2.847656 -4.773438 2.921875 -4.828125 C 3.265625 -5.148438 3.625 -5.429688 4 -5.671875 C 4.4375 -5.921875 4.863281 -6.046875 5.28125 -6.046875 C 5.707031 -6.046875 6.117188 -5.867188 6.515625 -5.515625 C 7.066406 -5.035156 7.597656 -4.847656 8.109375 -4.953125 C 8.628906 -5.054688 9.113281 -5.238281 9.5625 -5.5 C 10.019531 -5.769531 10.421875 -5.90625 10.765625 -5.90625 Z M 10.765625 -5.90625" transform="translate(174.658 35.965)"/></g></g></g></svg>